<?xml version="1.0" encoding="UTF-8" standalone="no"?>
<!-- Created with Inkscape (http://www.inkscape.org/) -->

<svg
   width="400"
   height="400"
   viewBox="0 0 105.83333 105.83333"
   version="1.1"
   id="svg1"
   inkscape:version="1.4 (86a8ad7, 2024-10-11)"
   sodipodi:docname="eg_logo.svg"
   xmlns:inkscape="http://www.inkscape.org/namespaces/inkscape"
   xmlns:sodipodi="http://sodipodi.sourceforge.net/DTD/sodipodi-0.dtd"
   xmlns:xlink="http://www.w3.org/1999/xlink"
   xmlns="http://www.w3.org/2000/svg"
   xmlns:svg="http://www.w3.org/2000/svg">
  <sodipodi:namedview
     id="namedview1"
     pagecolor="#ffffff"
     bordercolor="#000000"
     borderopacity="0.25"
     inkscape:showpageshadow="2"
     inkscape:pageopacity="0.0"
     inkscape:pagecheckerboard="0"
     inkscape:deskcolor="#d1d1d1"
     inkscape:document-units="mm"
     inkscape:zoom="1.4702524"
     inkscape:cx="178.88085"
     inkscape:cy="241.11507"
     inkscape:window-width="2560"
     inkscape:window-height="1369"
     inkscape:window-x="-8"
     inkscape:window-y="-8"
     inkscape:window-maximized="1"
     inkscape:current-layer="g88" />
  <defs
     id="defs1">
    <linearGradient
       xlink:href="#linearGradient7"
       id="linearGradient8-4"
       x1="1.1186055"
       y1="12.53494"
       x2="23.670643"
       y2="12.53494"
       gradientUnits="userSpaceOnUse"
       gradientTransform="matrix(0.54742823,0,0,0.54742823,68.93628,-52.14244)" />
    <linearGradient
       id="linearGradient7">
      <stop
         style="stop-color:#aa800b;stop-opacity:1;"
         offset="0"
         id="stop7" />
      <stop
         style="stop-color:#f1cc64;stop-opacity:1;"
         offset="1"
         id="stop8" />
    </linearGradient>
    <radialGradient
       xlink:href="#linearGradient46"
       id="radialGradient47"
       cx="12.727015"
       cy="14.313603"
       fx="12.727015"
       fy="14.313603"
       r="6.7576327"
       gradientUnits="userSpaceOnUse"
       gradientTransform="matrix(0.54742823,0,0,0.54742823,61.746901,-45.560539)" />
    <linearGradient
       id="linearGradient46">
      <stop
         style="stop-color:#0200aa;stop-opacity:1;"
         offset="0"
         id="stop46" />
      <stop
         style="stop-color:#00113c;stop-opacity:1;"
         offset="1"
         id="stop47" />
    </linearGradient>
    <linearGradient
       xlink:href="#linearGradient1"
       id="linearGradient2"
       x1="2.8225145"
       y1="13.579971"
       x2="20.89826"
       y2="13.579971"
       gradientUnits="userSpaceOnUse"
       gradientTransform="matrix(0.54742823,0,0,0.54742823,61.746901,-45.560539)" />
    <linearGradient
       id="linearGradient1">
      <stop
         style="stop-color:#ffffff;stop-opacity:1;"
         offset="0"
         id="stop1" />
      <stop
         style="stop-color:#ffffff;stop-opacity:0;"
         offset="1"
         id="stop2" />
    </linearGradient>
    <linearGradient
       xlink:href="#linearGradient34"
       id="linearGradient35"
       x1="12.001692"
       y1="18.83799"
       x2="19.650164"
       y2="18.83799"
       gradientUnits="userSpaceOnUse"
       gradientTransform="matrix(0.54742823,0,0,0.54742823,61.746901,-45.560539)" />
    <linearGradient
       id="linearGradient34">
      <stop
         style="stop-color:#0c63a7;stop-opacity:1;"
         offset="0"
         id="stop34" />
      <stop
         style="stop-color:#0c3aa9;stop-opacity:1;"
         offset="1"
         id="stop35" />
    </linearGradient>
    <filter
       style="color-interpolation-filters:sRGB"
       id="filter55"
       x="-4.6445043"
       y="-2.5353061"
       width="10.289009"
       height="6.0706121">
      <feGaussianBlur
         result="result6"
         stdDeviation="8"
         in="SourceGraphic"
         id="feGaussianBlur50" />
      <feComposite
         in2="SourceGraphic"
         in="result6"
         operator="xor"
         result="result10"
         id="feComposite51" />
      <feGaussianBlur
         result="result2"
         stdDeviation="8"
         id="feGaussianBlur51" />
      <feComposite
         in2="SourceGraphic"
         operator="atop"
         in="result10"
         result="result91"
         id="feComposite52" />
      <feComposite
         result="result4"
         in="result2"
         operator="xor"
         in2="result91"
         id="feComposite53" />
      <feGaussianBlur
         in="result4"
         result="result3"
         stdDeviation="4"
         id="feGaussianBlur53" />
      <feSpecularLighting
         result="result5"
         specularExponent="5"
         specularConstant="1.10000002"
         surfaceScale="18"
         id="feSpecularLighting53">
        <feDistantLight
           azimuth="235"
           elevation="55"
           id="feDistantLight53" />
      </feSpecularLighting>
      <feComposite
         in="result3"
         k3="1.1"
         k2="0.5"
         operator="arithmetic"
         result="result7"
         in2="result5"
         k1="0.5"
         id="feComposite54"
         k4="0" />
      <feGaussianBlur
         in="result7"
         result="result8"
         stdDeviation="1"
         id="feGaussianBlur54" />
      <feComposite
         in="result8"
         operator="atop"
         in2="SourceGraphic"
         result="result9"
         id="feComposite55" />
    </filter>
    <filter
       style="color-interpolation-filters:sRGB"
       id="filter60"
       x="-6.0464939"
       y="-5.9837995"
       width="13.092988"
       height="12.967599">
      <feGaussianBlur
         result="result6"
         stdDeviation="8"
         in="SourceGraphic"
         id="feGaussianBlur55" />
      <feComposite
         in2="SourceGraphic"
         in="result6"
         operator="xor"
         result="result10"
         id="feComposite56" />
      <feGaussianBlur
         result="result2"
         stdDeviation="8"
         id="feGaussianBlur56" />
      <feComposite
         in2="SourceGraphic"
         operator="atop"
         in="result10"
         result="result91"
         id="feComposite57" />
      <feComposite
         result="result4"
         in="result2"
         operator="xor"
         in2="result91"
         id="feComposite58" />
      <feGaussianBlur
         in="result4"
         result="result3"
         stdDeviation="4"
         id="feGaussianBlur58" />
      <feSpecularLighting
         result="result5"
         specularExponent="5"
         specularConstant="1.10000002"
         surfaceScale="18"
         id="feSpecularLighting58">
        <feDistantLight
           azimuth="235"
           elevation="55"
           id="feDistantLight58" />
      </feSpecularLighting>
      <feComposite
         in="result3"
         k3="1.1"
         k2="0.5"
         operator="arithmetic"
         result="result7"
         in2="result5"
         k1="0.5"
         id="feComposite59"
         k4="0" />
      <feGaussianBlur
         in="result7"
         result="result8"
         stdDeviation="1"
         id="feGaussianBlur59" />
      <feComposite
         in="result8"
         operator="atop"
         in2="SourceGraphic"
         result="result9"
         id="feComposite60" />
    </filter>
    <filter
       style="color-interpolation-filters:sRGB"
       id="filter50"
       x="-8.6822421"
       y="-8.6822421"
       width="18.364484"
       height="18.364484">
      <feGaussianBlur
         result="result6"
         stdDeviation="8"
         in="SourceGraphic"
         id="feGaussianBlur45" />
      <feComposite
         in2="SourceGraphic"
         in="result6"
         operator="xor"
         result="result10"
         id="feComposite46" />
      <feGaussianBlur
         result="result2"
         stdDeviation="8"
         id="feGaussianBlur46" />
      <feComposite
         in2="SourceGraphic"
         operator="atop"
         in="result10"
         result="result91"
         id="feComposite47" />
      <feComposite
         result="result4"
         in="result2"
         operator="xor"
         in2="result91"
         id="feComposite48" />
      <feGaussianBlur
         in="result4"
         result="result3"
         stdDeviation="4"
         id="feGaussianBlur48" />
      <feSpecularLighting
         result="result5"
         specularExponent="5"
         specularConstant="1.10000002"
         surfaceScale="18"
         id="feSpecularLighting48">
        <feDistantLight
           azimuth="235"
           elevation="55"
           id="feDistantLight48" />
      </feSpecularLighting>
      <feComposite
         in="result3"
         k3="1.1"
         k2="0.5"
         operator="arithmetic"
         result="result7"
         in2="result5"
         k1="0.5"
         id="feComposite49"
         k4="0" />
      <feGaussianBlur
         in="result7"
         result="result8"
         stdDeviation="1"
         id="feGaussianBlur49" />
      <feComposite
         in="result8"
         operator="atop"
         in2="SourceGraphic"
         result="result9"
         id="feComposite50" />
    </filter>
    <filter
       style="color-interpolation-filters:sRGB"
       id="filter65"
       x="-34.969572"
       y="-35.234801"
       width="70.939143"
       height="71.469602">
      <feGaussianBlur
         result="result6"
         stdDeviation="8"
         in="SourceGraphic"
         id="feGaussianBlur60" />
      <feComposite
         in2="SourceGraphic"
         in="result6"
         operator="xor"
         result="result10"
         id="feComposite61" />
      <feGaussianBlur
         result="result2"
         stdDeviation="8"
         id="feGaussianBlur61" />
      <feComposite
         in2="SourceGraphic"
         operator="atop"
         in="result10"
         result="result91"
         id="feComposite62" />
      <feComposite
         result="result4"
         in="result2"
         operator="xor"
         in2="result91"
         id="feComposite63" />
      <feGaussianBlur
         in="result4"
         result="result3"
         stdDeviation="4"
         id="feGaussianBlur63" />
      <feSpecularLighting
         result="result5"
         specularExponent="5"
         specularConstant="1.10000002"
         surfaceScale="18"
         id="feSpecularLighting63">
        <feDistantLight
           azimuth="235"
           elevation="55"
           id="feDistantLight63" />
      </feSpecularLighting>
      <feComposite
         in="result3"
         k3="1.1"
         k2="0.5"
         operator="arithmetic"
         result="result7"
         in2="result5"
         k1="0.5"
         id="feComposite64"
         k4="0" />
      <feGaussianBlur
         in="result7"
         result="result8"
         stdDeviation="1"
         id="feGaussianBlur64" />
      <feComposite
         in="result8"
         operator="atop"
         in2="SourceGraphic"
         result="result9"
         id="feComposite65" />
    </filter>
    <radialGradient
       xlink:href="#linearGradient3"
       id="radialGradient4"
       cx="12.551173"
       cy="12.336199"
       fx="12.551173"
       fy="12.336199"
       r="12.220445"
       gradientTransform="matrix(0.69304901,0.00586843,-0.00494459,0.58394487,59.980191,-46.084674)"
       gradientUnits="userSpaceOnUse" />
    <linearGradient
       id="linearGradient3">
      <stop
         style="stop-color:#00be37;stop-opacity:1;"
         offset="0"
         id="stop3" />
      <stop
         style="stop-color:#000000;stop-opacity:1;"
         offset="0.82536954"
         id="stop4" />
    </linearGradient>
    <linearGradient
       xlink:href="#linearGradient10"
       id="linearGradient11"
       x1="12.528067"
       y1="7.5058455"
       x2="12.86388"
       y2="21.470621"
       gradientUnits="userSpaceOnUse"
       gradientTransform="matrix(0.54742823,0,0,0.54742823,61.746901,-45.560539)" />
    <linearGradient
       id="linearGradient10">
      <stop
         style="stop-color:#00be37;stop-opacity:1;"
         offset="0.41833332"
         id="stop9" />
      <stop
         style="stop-color:#000000;stop-opacity:1;"
         offset="0.88796228"
         id="stop10" />
    </linearGradient>
    <linearGradient
       xlink:href="#linearGradient1"
       id="linearGradient11-1"
       x1="5.0866599"
       y1="7.6381373"
       x2="14.12065"
       y2="12.73937"
       gradientUnits="userSpaceOnUse"
       gradientTransform="matrix(0.54742823,0,0,0.54742823,61.746901,-45.560539)" />
    <filter
       style="color-interpolation-filters:sRGB"
       id="filter12"
       x="-3.3845536"
       y="-2.465467"
       width="7.7691073"
       height="5.930934">
      <feGaussianBlur
         result="result6"
         stdDeviation="8"
         in="SourceGraphic"
         id="feGaussianBlur8" />
      <feComposite
         in2="SourceGraphic"
         in="result6"
         operator="xor"
         result="result10"
         id="feComposite8" />
      <feGaussianBlur
         result="result2"
         stdDeviation="8"
         id="feGaussianBlur9" />
      <feComposite
         in2="SourceGraphic"
         operator="atop"
         in="result10"
         result="result91"
         id="feComposite9" />
      <feComposite
         result="result4"
         in="result2"
         operator="xor"
         in2="result91"
         id="feComposite10" />
      <feGaussianBlur
         in="result4"
         result="result3"
         stdDeviation="4"
         id="feGaussianBlur10" />
      <feSpecularLighting
         result="result5"
         specularExponent="5"
         specularConstant="1.10000002"
         surfaceScale="18"
         id="feSpecularLighting10">
        <feDistantLight
           azimuth="235"
           elevation="55"
           id="feDistantLight10" />
      </feSpecularLighting>
      <feComposite
         in="result3"
         k3="1.1"
         k2="0.5"
         operator="arithmetic"
         result="result7"
         in2="result5"
         k1="0.5"
         id="feComposite11"
         k4="0" />
      <feGaussianBlur
         in="result7"
         result="result8"
         stdDeviation="1"
         id="feGaussianBlur11" />
      <feComposite
         in="result8"
         operator="atop"
         in2="SourceGraphic"
         result="result9"
         id="feComposite12" />
    </filter>
    <radialGradient
       xlink:href="#linearGradient55"
       id="radialGradient57"
       cx="10.769008"
       cy="14.767198"
       fx="10.769008"
       fy="14.767198"
       r="3.1899326"
       gradientTransform="matrix(1.2056194,0.65412341,-0.17705431,0.32632992,57.266957,-48.245713)"
       gradientUnits="userSpaceOnUse" />
    <linearGradient
       id="linearGradient55">
      <stop
         style="stop-color:#36eaff;stop-opacity:1;"
         offset="0.61000001"
         id="stop56" />
      <stop
         style="stop-color:#0ca922;stop-opacity:0.85964912;"
         offset="1"
         id="stop57" />
    </linearGradient>
    <radialGradient
       xlink:href="#linearGradient55"
       id="radialGradient6"
       cx="10.769008"
       cy="14.767198"
       fx="10.769008"
       fy="14.767198"
       r="3.1899326"
       gradientTransform="matrix(1.2056194,0.65412341,-0.17705431,0.32632992,-137.08549,-53.286642)"
       gradientUnits="userSpaceOnUse" />
    <radialGradient
       xlink:href="#linearGradient95"
       id="radialGradient96"
       cx="9.762372"
       cy="8.7803478"
       fx="9.762372"
       fy="8.7803478"
       r="1.1622196"
       gradientTransform="matrix(0.54742821,0,0,0.48133636,61.746901,-45.208137)"
       gradientUnits="userSpaceOnUse" />
    <linearGradient
       id="linearGradient95">
      <stop
         style="stop-color:#000000;stop-opacity:1;"
         offset="0.10833331"
         id="stop95" />
      <stop
         style="stop-color:#3bf739;stop-opacity:1;"
         offset="0.65333325"
         id="stop96" />
    </linearGradient>
    <radialGradient
       xlink:href="#linearGradient1"
       id="radialGradient96-3"
       cx="14.158755"
       cy="8.772748"
       fx="14.158755"
       fy="8.772748"
       r="1.1622196"
       gradientTransform="matrix(0.54742821,0,0,0.48133636,61.746901,-45.208137)"
       gradientUnits="userSpaceOnUse" />
    <linearGradient
       id="linearGradient14">
      <stop
         style="stop-color:#000000;stop-opacity:1;"
         offset="0.2289483"
         id="stop13" />
      <stop
         style="stop-color:#3bf739;stop-opacity:1;"
         offset="0.75333327"
         id="stop14" />
    </linearGradient>
    <linearGradient
       xlink:href="#linearGradient497"
       id="linearGradient498"
       x1="-177.28171"
       y1="118.62873"
       x2="-129.18379"
       y2="129.2728"
       gradientUnits="userSpaceOnUse"
       gradientTransform="matrix(0.21970591,0,0,0.2046608,42.321821,-8.076345)" />
    <linearGradient
       id="linearGradient497">
      <stop
         style="stop-color:#00e7ff;stop-opacity:0.51533741;"
         offset="0"
         id="stop497" />
      <stop
         style="stop-color:#ffffff;stop-opacity:0.18404908;"
         offset="1"
         id="stop498" />
    </linearGradient>
    <linearGradient
       xlink:href="#linearGradient493"
       id="linearGradient494"
       x1="6.3403645"
       y1="23.466446"
       x2="13.599047"
       y2="5.983994"
       gradientUnits="userSpaceOnUse"
       gradientTransform="matrix(0.24265858,0,0,0.24265858,45.148311,-11.652252)" />
    <linearGradient
       id="linearGradient493">
      <stop
         style="stop-color:#8d4e10;stop-opacity:1;"
         offset="0"
         id="stop493" />
      <stop
         style="stop-color:#8d4e10;stop-opacity:0;"
         offset="1"
         id="stop494" />
    </linearGradient>
    <radialGradient
       xlink:href="#linearGradient492"
       id="radialGradient491"
       cx="8.8526449"
       cy="3.9213724"
       fx="8.8526449"
       fy="3.9213724"
       r="5.3609638"
       gradientTransform="matrix(0.24265857,0,0,0.2266942,45.148311,-11.52275)"
       gradientUnits="userSpaceOnUse" />
    <linearGradient
       id="linearGradient492">
      <stop
         style="stop-color:#ffffff;stop-opacity:0.66399997;"
         offset="0"
         id="stop491" />
      <stop
         style="stop-color:#ffffff;stop-opacity:0;"
         offset="1"
         id="stop492" />
    </linearGradient>
  </defs>
  <g
     inkscape:label="Layer 1"
     inkscape:groupmode="layer"
     id="layer1">
    <g
       id="g15"
       transform="matrix(1.8267235,0,0,1.8267235,74.75105,35.891388)">
      <g
         id="g88"
         style="display:inline"
         transform="matrix(2.2559607,0,0,2.2559607,-40.105913,-19.273515)">
        <g
           id="g496"
           style="display:inline;fill:#87cdde"
           transform="matrix(1.10447,0,0,1.1856623,-1.5948729,-2.0764355)">
          <path
             id="rect494"
             style="display:inline;fill:#08377e;fill-opacity:1;stroke:none;stroke-width:0.0608058;stroke-linecap:round;stroke-linejoin:round;stroke-miterlimit:3.1;stroke-dasharray:none;stroke-dashoffset:206.966;stroke-opacity:1;paint-order:stroke fill markers"
             d="M 1.6376261,2.1602183 V 11.684229 A 11.037974,11.037974 0 0 0 12.675194,22.722312 h 0.06992 A 11.103644,11.103644 0 0 0 23.848491,11.618422 V 2.1602183 Z M 1.950209,2.449666 h 21.5857 v 9.191892 A 10.790926,10.790926 0 0 1 12.745115,22.432865 h -0.06786 A 10.727105,10.727105 0 0 1 1.950209,11.705821 Z" />
          <path
             style="fill:#87cdde;fill-opacity:1;stroke:none;stroke-width:0.0611188;stroke-linecap:round;stroke-linejoin:round;stroke-miterlimit:3.1;stroke-dasharray:none;stroke-dashoffset:206.966;stroke-opacity:1;paint-order:stroke fill markers"
             id="rect495"
             width="21.547558"
             height="20.500107"
             x="2.0200837"
             y="2.3692336"
             d="M 2.0200837,2.3692336 H 23.567641 V 12.079351 A 10.789989,10.789989 135 0 1 12.777652,22.86934 10.780662,10.780662 45.122602 0 1 2.0200837,12.065634 Z"
             transform="matrix(0.95741236,0,0,0.934298,0.4940682,0.63862073)" />
          <path
             style="display:inline;fill:#00428e;fill-opacity:1;stroke:none;stroke-width:0.0611188;stroke-linecap:round;stroke-linejoin:round;stroke-miterlimit:3.1;stroke-dasharray:none;stroke-dashoffset:206.966;stroke-opacity:1;paint-order:stroke fill markers"
             id="rect495-9"
             width="21.547558"
             height="20.500107"
             x="4.2342191"
             y="9.3094378"
             d="M 4.2342191,9.3094378 H 25.781777 V 19.019556 A 10.789989,10.789989 135 0 1 14.991788,29.809545 10.780662,10.780662 45.122602 0 1 4.2342191,19.005839 Z"
             transform="matrix(0.95741236,0,0,0.934298,-1.6195676,-5.8678581)" />
          <path
             style="display:inline;fill:url(#linearGradient498);stroke:none;stroke-width:0.0552968;stroke-linecap:round;stroke-linejoin:round;stroke-miterlimit:3.1;stroke-dasharray:none;stroke-dashoffset:206.966;stroke-opacity:1;paint-order:stroke fill markers"
             d="m 2.4282187,11.569424 c 3.9827874,4.886061 9.5481783,7.529263 16.2110653,8.6171 -2.451343,1.553477 -6.06391,2.727512 -10.336455,0.800444 C 7.0542714,20.383657 5.5335331,19.430927 4.5787633,18.100428 3.1834211,16.155979 2.5187339,14.468014 2.4282187,11.569424 Z"
             id="path497" />
        </g>
        <path
           id="path90-2"
           style="display:none;fill:#ab6a2b;stroke-width:0.383849;stroke-linecap:round;stroke-linejoin:round;stroke-miterlimit:3.1;stroke-dashoffset:206.966;paint-order:stroke fill markers"
           d="m 8.9553098,0.20444763 c -2.6232896,0 -4.7499457,2.12664997 -4.7499457,4.74993787 0,2.6232881 2.1266561,4.7494133 4.7499457,4.7494133 2.6232882,0 4.7499442,-2.1261252 4.7499442,-4.7494133 0,-2.6232879 -2.126656,-4.74993787 -4.7499442,-4.74993787 z M 15.796425,8.1647606 c -0.998753,0 -1.932502,0.1855045 -2.801209,0.557465 -0.408287,0.1749843 -0.811797,0.4203286 -1.210424,0.7351173 -0.08816,0.069631 -0.248817,0.1285635 -0.361153,0.1285635 h -0.718574 c -0.317267,0 -0.441197,0.4002666 -1.6724029,0.3952956 C 7.8237316,9.975867 7.777777,9.5859064 7.3559909,9.5859064 H 6.4576413 c -0.4286773,0 -0.776187,0.3475056 -0.776187,0.7761846 v 10.657502 c 0,0.462621 0.3749138,0.837003 0.8375351,0.837003 h 5.5111936 c 0.193301,0 0.349951,-0.156652 0.349951,-0.349951 v -1.274973 c 0,-0.369291 -0.299669,-0.668962 -0.66896,-0.668962 H 8.3701021 c -0.2043601,0 -0.3696894,-0.165329 -0.3696894,-0.369689 v -2.508872 c 0,-0.193299 0.1566508,-0.349951 0.3499517,-0.349951 h 1.9337976 c 0.127079,0.403143 0.297954,0.797837 0.518525,1.182153 0.520183,0.906343 1.193663,1.597352 2.020756,2.074099 0.82709,0.476748 1.797375,0.715373 2.910567,0.715373 1.19122,0 2.25484,-0.259129 3.19117,-0.777789 0.931127,-0.523898 1.669808,-1.268031 2.215999,-2.232003 0.540992,-0.963972 0.811397,-2.003783 0.811397,-3.119686 0,-1.529782 -0.50201,-2.860808 -1.505962,-3.992431 -1.19122,-1.3464196 -2.741116,-2.0191534 -4.650189,-2.0191534 z m -0.01548,2.1530524 c 1.128798,0 2.075483,0.377065 2.840151,1.131472 0.759468,0.754415 1.138943,1.671304 1.138943,2.750533 0,1.115902 -0.39521,2.06158 -1.185887,2.83695 -0.790678,0.775367 -1.766031,1.162948 -2.926038,1.162948 -0.754267,0 -1.388944,-0.159472 -1.903925,-0.479049 -0.449326,-0.276047 -0.822906,-0.687042 -1.120805,-1.232833 -0.07949,-0.145649 -10e-4,-0.268331 0.16484,-0.268331 h 2.077301 v 1.545974 c 3.17e-4,0.224675 0.220889,0.364858 0.397429,0.25286 l 3.992962,-2.543012 c 0.170203,-0.108272 0.170203,-0.379311 0,-0.487585 l -3.787045,-2.412314 c -0.26829,-0.170754 -0.603453,0.04291 -0.603346,0.384625 v 1.12934 h -4.827827 v 9.78e-4 H 8.3695684 c -0.2036325,0 -0.3691557,-0.165523 -0.3691557,-0.369156 V 12.47188 c 0,-0.189043 0.08748,-0.35774 0.2240542,-0.467851 0.171716,-0.138434 0.5593079,-0.132833 0.7841899,-0.132833 H 12.3764 c 0.01203,-0.01201 0.08498,-0.08741 0.165373,-0.165905 0.97052,-0.947291 2.00493,-1.387531 3.239182,-1.387531 z m -0.09442,3.321335 c 0.03605,0.0033 0.07115,0.01462 0.102957,0.0336 l 2.292286,1.366198 c 0.133538,0.07967 0.133538,0.291076 0,0.370755 l -2.364302,1.408873 c -0.141785,0.08424 -0.313643,-0.02879 -0.313675,-0.206449 v -2.685446 c 4.1e-5,-0.168784 0.130257,-0.301306 0.282733,-0.287535 z m 0.272599,0.752183 a 0.08366944,0.08366944 0 0 0 -0.0923,0.0832 v 1.531567 a 0.09399801,0.09399801 0 0 0 0.140835,0.08161 l 1.298447,-0.749513 a 0.10253854,0.10253854 0 0 0 0,-0.177643 L 15.992198,14.40251 a 0.08366944,0.08366944 0 0 0 -0.03307,-0.01121 z" />
        <path
           id="path492"
           style="display:none;fill:url(#linearGradient494);fill-opacity:1;stroke:none;stroke-width:0.0543519;stroke-linecap:round;stroke-linejoin:round;stroke-miterlimit:3.1;stroke-dasharray:none;stroke-dashoffset:206.966;stroke-opacity:1;paint-order:stroke fill markers"
           d="M 4.2220605,4.6928027 C 4.1380221,6.5803845 4.9462985,7.8046954 6.2638407,8.8820591 8.7442805,10.528704 11.365374,9.3350147 12.231095,8.37104 7.2692493,7.6036061 4.6647404,5.4929311 4.2220605,4.6928027 Z m 11.6408575,10.4708453 -0.0013,0.843274 c -0.01196,0.04919 0.04375,0.127342 0.133728,0.0942 l 0.886013,-0.51975 z m 1.397492,0.727467 -1.618995,0.948511 c -0.13214,0.0018 -0.265959,-0.106544 -0.23437,-0.337769 l -0.540432,-0.275271 0.0012,1.591421 c 0.0421,0.126942 0.08438,0.253937 0.310197,0.248157 l 2.892867,-1.848769 c -0.49303,-0.202901 -0.472874,-0.203785 -0.810601,-0.32628 z m -6.98378,0.445304 c 0.322022,1.254785 1.167921,2.289777 2.406203,3.160325 1.889541,1.286947 4.493949,0.708532 5.345024,0.432436 0,0 -1.775991,-0.229694 -2.732023,-0.516994 C 14.095571,19.051492 12.980082,18.434268 12.013728,17.726558 11.08175,17.044023 10.27663,16.336419 10.27663,16.336419 Z m -4.5977962,3.036246 -0.0023,1.748128 c 0.036592,0.34423 0.356889,0.693246 0.5992531,0.703571 1.5121742,0.0644 3.0464581,0.01748 4.5697641,0.02619 -2.9635794,0.06734 -5.0992656,-1.331482 -5.1667191,-2.477894 z" />
        <path
           id="path90-2-7"
           style="display:none;fill:none;stroke:#000000;stroke-width:0.0543519;stroke-linecap:round;stroke-linejoin:round;stroke-miterlimit:3.1;stroke-dasharray:none;stroke-dashoffset:206.966;stroke-opacity:1;paint-order:stroke fill markers"
           d="m 8.9553098,0.20444586 c -2.6232896,0 -4.7499457,2.12665524 -4.7499457,4.74994504 0,2.6232897 2.1266561,4.7494105 4.7499457,4.7494105 2.6232882,0 4.7499442,-2.1261208 4.7499442,-4.7494105 0,-2.6232889 -2.126654,-4.74994415 -4.7499442,-4.74994504 z M 15.796425,8.1647642 c -0.998753,0 -1.932502,0.1855009 -2.801209,0.5574677 -0.408287,0.1749807 -0.811797,0.4203242 -1.210424,0.735109 -0.08816,0.069615 -0.248817,0.1285655 -0.361153,0.1285655 h -0.718574 c -0.317267,0 -0.441197,0.4002656 -1.6724029,0.3952946 C 7.8237316,9.97631 7.777777,9.5859064 7.3559909,9.5859064 H 6.4576413 c -0.4286773,0 -0.776187,0.3475106 -0.776187,0.7761886 v 10.657501 c 0,0.462619 0.3749138,0.837002 0.8375351,0.837002 h 5.5111936 c 0.193301,0 0.349951,-0.156652 0.349951,-0.349951 v -1.274973 c 0,-0.369291 -0.299669,-0.668963 -0.66896,-0.668963 H 8.3701021 c -0.2043601,0 -0.3696894,-0.165328 -0.3696894,-0.36969 v -2.50887 c 0,-0.1933 0.1566508,-0.349951 0.3499517,-0.349951 h 1.9337976 c 0.127079,0.403142 0.297954,0.797836 0.518525,1.182152 0.520183,0.906344 1.193663,1.597353 2.020756,2.0741 0.82709,0.476747 1.797375,0.715372 2.910567,0.715372 1.19122,0 2.25484,-0.259129 3.19117,-0.777786 0.931127,-0.5239 1.669808,-1.268034 2.215999,-2.232005 0.540992,-0.963972 0.811397,-2.003784 0.811397,-3.119687 0,-1.529779 -0.50201,-2.860811 -1.505962,-3.99243 -1.19122,-1.3464145 -2.741116,-2.0191518 -4.650189,-2.0191518 z m -0.01548,2.1530518 c 1.128798,0 2.075483,0.37706 2.840151,1.131474 0.759468,0.754411 1.138943,1.671301 1.138943,2.750529 0,1.115904 -0.39521,2.061581 -1.185887,2.83695 -0.790678,0.775367 -1.766031,1.162949 -2.926038,1.162949 -0.754267,0 -1.388944,-0.159473 -1.903925,-0.47905 -0.449326,-0.276046 -0.822906,-0.68704 -1.120805,-1.232832 -0.07949,-0.145649 -10e-4,-0.26833 0.16484,-0.26833 h 2.077301 v 1.545973 c 3.17e-4,0.224674 0.220889,0.364859 0.397429,0.25286 l 3.992962,-2.543012 c 0.170203,-0.108272 0.170203,-0.379312 0,-0.487586 l -3.787045,-2.412314 c -0.26829,-0.170752 -0.603453,0.04291 -0.603346,0.384626 v 1.12934 h -4.827827 v 9.77e-4 H 8.3695684 c -0.2036325,0 -0.3691557,-0.165522 -0.3691557,-0.369155 v -1.249334 c 0,-0.189041 0.08748,-0.357737 0.2240542,-0.467848 0.171716,-0.138437 0.5593079,-0.132832 0.7841899,-0.132832 H 12.3764 c 0.01203,-0.01202 0.08498,-0.08743 0.165373,-0.165905 0.97052,-0.94729 2.00493,-1.387536 3.239182,-1.387536 z m -0.09442,3.321335 c 0.03605,0.0033 0.07115,0.01462 0.102957,0.0336 l 2.292286,1.366196 c 0.133538,0.07968 0.133538,0.291077 0,0.370755 l -2.364302,1.408874 c -0.141785,0.08424 -0.313643,-0.02879 -0.313676,-0.206449 v -2.685446 c 4.2e-5,-0.168785 0.130258,-0.301306 0.282734,-0.287535 z m 0.272599,0.752182 a 0.08366944,0.08366944 0 0 0 -0.0923,0.0832 v 1.53157 a 0.09399801,0.09399801 0 0 0 0.140835,0.08161 l 1.298447,-0.749514 a 0.10253854,0.10253854 0 0 0 0,-0.177642 L 15.992189,14.40251 a 0.08366944,0.08366944 0 0 0 -0.03307,-0.01121 z" />
        <ellipse
           style="display:none;fill:url(#radialGradient491);stroke:none;stroke-width:0.0557026;stroke-linecap:round;stroke-linejoin:round;stroke-miterlimit:3.1;stroke-dasharray:none;stroke-dashoffset:206.966;stroke-opacity:1;paint-order:stroke fill markers"
           id="path490"
           cx="8.8639498"
           cy="4.9700332"
           rx="4.7674155"
           ry="4.677886" />
        <g
           id="g511"
           transform="matrix(0.88987821,0,0,0.88987821,0.59749828,0.08947035)"
           style="stroke:#000000;stroke-width:0.0781966;stroke-dasharray:none;stroke-dashoffset:0;stroke-opacity:1">
          <path
             id="path503-6-9"
             style="-inkscape-font-specification:'Century Gothic Bold';display:none;fill:#c2edfb;fill-opacity:1;stroke:#000000;stroke-width:0.0781966;stroke-linecap:round;stroke-linejoin:round;stroke-miterlimit:3.1;stroke-dasharray:none;stroke-dashoffset:0;stroke-opacity:1;paint-order:stroke fill markers"
             d="m 16.173438,2.9611816 c -1.142548,0 -2.210899,0.244265 -3.20468,0.7327934 -0.253349,0.1246547 -0.50505,0.2765809 -0.755156,0.4552723 -0.09748,0.069639 -0.17431,0.032069 -0.17431,-0.087729 V 3.6716128 A 0.27815191,0.27815191 0 0 0 11.761197,3.3935182 H 3.8076925 a 1.43061,1.43061 0 0 0 -1.4306097,1.43061 V 19.687565 a 1.406585,1.406585 0 0 0 1.4065277,1.406528 h 7.6312585 a 0.6244799,0.6244799 0 0 0 0.624423,-0.624423 v -1.786686 a 0.89775798,0.89775798 0 0 0 -0.89793,-0.89793 H 6.0938015 a 0.37144255,0.37144255 0 0 1 -0.371557,-0.371557 v -4.215568 a 0.59495028,0.59495028 0 0 1 0.59518,-0.595181 h 3.1335793 c 0.213107,0 0.402169,0.172257 0.42947,0.383599 0.09828,0.76084 0.2683562,1.524156 0.5659372,2.188059 0.495635,1.105756 1.379499,2.167418 2.325673,2.79356 0.946175,0.626142 2.056214,0.939214 3.329681,0.939214 1.362728,0 2.579639,-0.340595 3.650779,-1.021782 1.06519,-0.688068 1.910129,-1.665128 2.53496,-2.931174 0.618881,-1.266045 0.928321,-2.631865 0.928321,-4.09745 0,-2.0091596 -0.573967,-3.7568594 -1.722466,-5.2430864 -1.362728,-1.7683353 -3.135984,-2.652506 -5.319921,-2.652506 z m -0.01835,2.827963 c 1.291318,0 2.374641,0.495411 3.249405,1.486229 0.868814,0.9908188 1.303318,2.1949428 1.303318,3.6123634 0,1.465585 -0.452124,2.707552 -1.356643,3.725893 -0.904518,1.018341 -2.020431,1.527513 -3.347455,1.527513 -0.862863,0 -1.589185,-0.209861 -2.178312,-0.629583 -0.506281,-0.357092 -1.395818,-1.52358 -1.475908,-2.462713 -0.02202,-0.258203 0.250205,-0.467314 0.510891,-0.467314 h 2.922 a 0.40905698,0.40905698 0 0 0 0.408827,-0.408827 V 10.273062 A 0.40601796,0.40601796 0 0 0 15.785253,9.8671004 h -3.745961 v -5.74e-4 H 6.2692595 A 0.54690012,0.54690012 0 0 1 5.7222445,9.3195124 V 7.5207856 a 0.82958182,0.82958182 0 0 1 0.829697,-0.829697 h 4.7138465 l 0.577403,0.660546 c 0.232073,0.265551 0.59895,0.256901 0.844605,0.004 1.014445,-1.044308 2.169997,-1.566503 3.467294,-1.566503 z m 0.433484,3.1410348 a 0.30174901,0.30174901 0 0 0 -0.252866,0.294149 l -0.04071,3.9254346 a 0.34989458,0.34989458 0 0 0 0.521786,0.308485 l 3.597453,-2.02751 a 0.18381529,0.18381529 0 0 0 0.0034,-0.318805 L 16.790981,8.9680234 a 0.30174901,0.30174901 0 0 0 -0.202407,-0.03784 z m 0.239676,0.302177 a 0.26179321,0.26179321 0 0 1 0.176032,0.03326 l 3.146768,1.8600796 a 0.15947557,0.15947557 0 0 1 -0.0029,0.276375 l -3.12154,1.759163 a 0.30356363,0.30356363 0 0 1 -0.452405,-0.267772 l 0.03497,-3.4053686 a 0.26179321,0.26179321 0 0 1 0.219035,-0.255733 z m 0.249426,0.8279766 a 0.17009977,0.15273559 0 0 0 -0.142201,0.149656 l -0.02294,1.986799 a 0.19724004,0.17710531 0 0 0 0.294149,0.155962 l 2.028083,-1.026369 a 0.10361903,0.09304135 0 0 0 0.0018,-0.161123 l -2.04421,-1.085429 a 0.17009977,0.15273559 0 0 0 -0.114679,-0.01949 z" />
          <path
             id="path503-6"
             style="-inkscape-font-specification:'Century Gothic Bold';display:none;fill:#066d87;fill-opacity:1;stroke:#000000;stroke-width:0.0781966;stroke-linecap:round;stroke-linejoin:round;stroke-miterlimit:3.1;stroke-dasharray:none;stroke-dashoffset:0;stroke-opacity:1;paint-order:stroke fill markers"
             d="m 16.10332,2.8984253 c -1.142548,0 -2.210899,0.244265 -3.20468,0.7327934 -0.253349,0.1246547 -0.50505,0.2765809 -0.755156,0.4552723 -0.09748,0.069639 -0.17431,0.032069 -0.17431,-0.087729 V 3.6088565 A 0.27815191,0.27815191 0 0 0 11.691079,3.3307619 H 3.7375749 a 1.43061,1.43061 0 0 0 -1.4306097,1.43061 V 19.624809 a 1.406585,1.406585 0 0 0 1.4065277,1.406528 h 7.6312581 a 0.6244799,0.6244799 0 0 0 0.624423,-0.624423 v -1.786686 a 0.89775798,0.89775798 0 0 0 -0.89793,-0.89793 H 6.0236839 a 0.37144255,0.37144255 0 0 1 -0.371557,-0.371557 v -4.215568 a 0.59495028,0.59495028 0 0 1 0.59518,-0.595181 h 3.1335798 c 0.213107,0 0.402169,0.172257 0.42947,0.383599 0.09828,0.76084 0.2683553,1.524156 0.5659363,2.188059 0.495635,1.105756 1.379499,2.167418 2.325673,2.79356 0.946175,0.626142 2.056214,0.939214 3.329681,0.939214 1.362728,0 2.579639,-0.340595 3.650779,-1.021782 1.06519,-0.688068 1.910129,-1.665128 2.53496,-2.931174 0.618881,-1.266045 0.928321,-2.631865 0.928321,-4.09745 0,-2.0091604 -0.573967,-3.7568597 -1.722466,-5.2430867 C 20.060513,3.782596 18.287257,2.8984253 16.10332,2.8984253 Z m -0.01835,2.827963 c 1.291318,0 2.374641,0.495411 3.249405,1.486229 0.868814,0.9908193 1.303318,2.1949433 1.303318,3.6123637 0,1.465585 -0.452124,2.707552 -1.356643,3.725893 -0.904518,1.018341 -2.020431,1.527513 -3.347455,1.527513 -0.862863,0 -1.589185,-0.209861 -2.178312,-0.629583 -0.506281,-0.357092 -1.395818,-1.52358 -1.475908,-2.462713 -0.02202,-0.258203 0.250205,-0.467314 0.510891,-0.467314 h 2.922 A 0.40905698,0.40905698 0 0 0 16.121093,12.10995 V 10.210306 A 0.40601796,0.40601796 0 0 0 15.715135,9.8043446 h -3.745961 v -5.74e-4 H 6.1991419 A 0.54690012,0.54690012 0 0 1 5.6521269,9.2567556 V 7.4580293 a 0.82958182,0.82958182 0 0 1 0.829697,-0.829697 H 11.19567 l 0.577403,0.660546 c 0.232073,0.265551 0.59895,0.256901 0.844605,0.004 1.014445,-1.044308 2.169997,-1.566503 3.467294,-1.566503 z m 0.433484,3.1410353 a 0.30174901,0.30174901 0 0 0 -0.252866,0.294149 l -0.04071,3.9254344 a 0.34989458,0.34989458 0 0 0 0.521786,0.308485 l 3.597453,-2.02751 a 0.18381529,0.18381529 0 0 0 0.0034,-0.318805 L 16.720863,8.9052676 a 0.30174901,0.30174901 0 0 0 -0.202407,-0.03784 z m 0.239676,0.302177 a 0.26179321,0.26179321 0 0 1 0.176032,0.03326 l 3.146768,1.8600804 a 0.15947557,0.15947557 0 0 1 -0.0029,0.276375 l -3.12154,1.759163 a 0.30356363,0.30356363 0 0 1 -0.452405,-0.267773 l 0.03497,-3.4053694 a 0.26179321,0.26179321 0 0 1 0.219035,-0.255733 z m 0.249426,0.8279761 a 0.17009977,0.15273559 0 0 0 -0.142201,0.1496563 l -0.02294,1.986799 a 0.19724004,0.17710531 0 0 0 0.294149,0.155962 l 2.028083,-1.026369 a 0.10361903,0.09304135 0 0 0 0.0018,-0.161123 l -2.04421,-1.085429 a 0.17009977,0.15273559 0 0 0 -0.114679,-0.01949 z" />
          <path
             id="path503"
             style="-inkscape-font-specification:'Century Gothic Bold';display:inline;fill:#caa614;fill-opacity:1;stroke:none;stroke-width:0.0781966;stroke-linecap:round;stroke-linejoin:round;stroke-miterlimit:3.1;stroke-dasharray:none;stroke-dashoffset:0;stroke-opacity:1;paint-order:stroke fill markers"
             d="m 16.060804,2.840913 c -1.142548,0 -2.210899,0.244265 -3.20468,0.7327934 -0.253349,0.1246547 -0.50505,0.2765809 -0.755156,0.4552723 -0.09748,0.069639 -0.17431,0.032069 -0.17431,-0.087729 V 3.5513442 C 11.926626,3.3977697 11.802137,3.273281 11.648563,3.2732496 H 3.6950588 c -0.7901041,0 -1.43061,0.6405059 -1.43061,1.43061 V 19.567295 c 3.15e-5,0.776791 0.6297368,1.406496 1.4065276,1.406528 h 7.6312586 c 0.344846,-3.1e-5 0.624392,-0.279577 0.624423,-0.624423 v -1.786686 c 9.5e-5,-0.495952 -0.401978,-0.898025 -0.89793,-0.89793 H 5.9811678 c -0.2052315,6.3e-5 -0.3716204,-0.166325 -0.3715572,-0.371557 v -4.215568 c -1.275e-4,-0.328762 0.266418,-0.595308 0.5951796,-0.595181 h 3.1335801 c 0.213107,0 0.402169,0.172257 0.42947,0.383599 0.09828,0.76084 0.2683547,1.524156 0.5659367,2.188059 0.495635,1.105756 1.379499,2.167418 2.325673,2.79356 0.946175,0.626142 2.056214,0.939214 3.329681,0.939214 1.362728,0 2.579639,-0.340595 3.650779,-1.021782 1.06519,-0.688068 1.910129,-1.665128 2.53496,-2.931174 0.618881,-1.266045 0.928321,-2.631865 0.928321,-4.09745 0,-2.0091589 -0.573967,-3.7568581 -1.722466,-5.2430852 C 20.017997,3.7250837 18.244741,2.840913 16.060804,2.840913 Z m -0.01835,2.8279634 c 1.291318,0 2.374641,0.4954109 3.249405,1.4862288 0.868814,0.9908179 1.303318,2.1949429 1.303318,3.6123618 0,1.465585 -0.452124,2.707552 -1.356643,3.725893 -0.904518,1.018341 -2.020431,1.527513 -3.347455,1.527513 -0.862863,0 -1.589185,-0.209861 -2.178312,-0.629583 -0.506281,-0.357092 -1.395818,-1.52358 -1.475908,-2.462713 -0.02202,-0.258203 0.250205,-0.467314 0.510891,-0.467314 h 3.151951 c 0.225736,-1.27e-4 0.4087,-0.183091 0.408827,-0.408827 V 10.152792 C 16.308496,9.9286002 16.126762,9.7468642 15.90257,9.7468311 h -3.975912 v -5.74e-4 H 6.1566254 C 5.8544915,9.7463205 5.6095477,9.501377 5.6096106,9.1992431 V 7.4005165 C 5.6095472,6.9422615 5.9810521,6.5707566 6.4393071,6.57082 h 4.7138469 l 0.577403,0.6605462 c 0.232073,0.2655506 0.59895,0.2569008 0.844605,0.00402 1.014445,-1.0443081 2.169997,-1.5665035 3.467294,-1.5665035 z m 0.433484,3.1410347 c -0.144493,0.02371 -0.484346,0.147734 -0.486102,0.294149 l -0.04071,3.9254329 c -0.0029,0.26944 0.520333,0.440875 0.755022,0.308485 l 3.597453,-2.02751 c 0.123806,-0.06933 0.125699,-0.246846 0.0034,-0.318805 L 16.678347,8.8477551 c -0.06095,-0.035956 -0.132588,-0.049349 -0.202407,-0.03784 z m 0.10495,0.302177 c 0.0614,-0.0046 0.123092,0.00182 0.176032,0.03326 l 3.146768,1.8600789 c 0.105865,0.06246 0.127481,0.216152 0.02033,0.276375 l -3.12154,1.759163 c -0.2036,0.114558 -0.343381,-0.03417 -0.340908,-0.267773 l 0.03497,-3.4053689 c 0.0012,-0.1271182 -0.04246,-0.2462246 0.08431,-0.255732 z m 0.543296,1.0787209 c -0.06858,0.01043 -0.119009,0.06448 -0.119469,0.128054 l -0.02565,1.705641 c -0.0013,0.122482 0.142868,0.20033 0.259525,0.140143 l 1.622247,-0.878593 c 0.06128,-0.03162 0.06215,-0.112039 0.0016,-0.144781 l -1.641903,-0.933782 c -0.02896,-0.01578 -0.06309,-0.02168 -0.09635,-0.01668 z"
             transform="translate(1.4191251,0.55188198)" />
        </g>
      </g>
    </g>
  </g>
</svg>
