<?xml version="1.0" encoding="UTF-8" standalone="no"?>
<!-- Created with Inkscape (http://www.inkscape.org/) -->

<svg
   width="22.552038mm"
   height="22.739124mm"
   viewBox="0 0 22.552038 22.739124"
   version="1.1"
   id="svg1"
   xml:space="preserve"
   xmlns:xlink="http://www.w3.org/1999/xlink"
   xmlns="http://www.w3.org/2000/svg"
   xmlns:svg="http://www.w3.org/2000/svg"><defs
     id="defs1"><linearGradient
       id="linearGradient7"><stop
         style="stop-color:#aa800b;stop-opacity:1;"
         offset="0"
         id="stop7" /><stop
         style="stop-color:#f1cc64;stop-opacity:1;"
         offset="1"
         id="stop8" /></linearGradient><linearGradient
       xlink:href="#linearGradient7"
       id="linearGradient8"
       x1="1.1186055"
       y1="12.53494"
       x2="23.670643"
       y2="12.53494"
       gradientUnits="userSpaceOnUse"
       gradientTransform="translate(1.2619754,1.3147422)" /></defs><g
     id="layer1"
     style="display:none"
     transform="translate(-1.1186055,-1.1653777)"><path
       id="rect1"
       style="fill:none;stroke:#8a8a8a;stroke-width:0.997744;stroke-linecap:round;stroke-linejoin:round;stroke-miterlimit:3.1;stroke-dashoffset:206.966;stroke-opacity:1;paint-order:stroke fill markers"
       d="M 7.4300374,1.3043131 1.3999145,7.51427 v 13.749031 a 2.8185733,2.8185733 0 0 0 2.8184326,2.818433 H 20.980115 a 2.8472043,2.8472043 0 0 0 2.847371,-2.846855 V 4.0912231 a 2.786761,2.786761 0 0 0 -2.78691,-2.78691 z" /><rect
       style="fill:none;stroke:#8a8a8a;stroke-width:1.00918;stroke-linecap:round;stroke-linejoin:round;stroke-miterlimit:3.1;stroke-dashoffset:206.966;stroke-opacity:1;paint-order:stroke fill markers"
       id="rect2"
       width="15.799294"
       height="9.0868893"
       x="4.9366317"
       y="-22.167479"
       transform="scale(1,-1)" /><path
       style="fill:none;stroke:#8a8a8a;stroke-width:0.956494;stroke-linecap:round;stroke-linejoin:round;stroke-miterlimit:3.1;stroke-dashoffset:206.966;stroke-opacity:1;paint-order:stroke fill markers"
       d="m 8.9477934,13.545846 v 8.098433"
       id="path2" /><path
       style="fill:none;stroke:#8a8a8a;stroke-width:0.968415;stroke-linecap:round;stroke-linejoin:round;stroke-miterlimit:3.1;stroke-dashoffset:206.966;stroke-opacity:1;paint-order:stroke fill markers"
       d="m 12.956149,13.542558 v 8.181701"
       id="path3" /><path
       style="fill:none;stroke:#8a8a8a;stroke-width:0.97604;stroke-linecap:round;stroke-linejoin:round;stroke-miterlimit:3.1;stroke-dashoffset:206.966;stroke-opacity:1;paint-order:stroke fill markers"
       d="m 16.837254,13.45655 v 8.402381"
       id="path4" /><path
       style="fill:none;stroke:#8a8a8a;stroke-width:0.970205;stroke-linecap:round;stroke-linejoin:round;stroke-miterlimit:3.1;stroke-dashoffset:206.966;stroke-opacity:1;paint-order:stroke fill markers"
       d="M 5.3862144,16.045062 H 20.276024"
       id="path5" /><path
       style="fill:none;stroke:#8a8a8a;stroke-width:0.981404;stroke-linecap:round;stroke-linejoin:round;stroke-miterlimit:3.1;stroke-dashoffset:206.966;stroke-opacity:1;paint-order:stroke fill markers"
       d="M 5.4160765,19.428812 H 20.466956"
       id="path6" /><path
       style="fill:none;stroke:#8a8a8a;stroke-width:0.706702;stroke-linecap:round;stroke-linejoin:round;stroke-miterlimit:3.1;stroke-dasharray:none;stroke-dashoffset:206.966;stroke-opacity:1;paint-order:stroke fill markers"
       d="m 7.8343381,1.2862346 c 0,2.2138824 0,4.4277652 -1.0562926,5.5347064 C 5.7217529,7.9278823 3.6092521,7.9278823 1.4967093,7.9278823"
       id="path37" /></g><g
     id="layer2"
     style="display:none"
     transform="translate(-1.1186055,-1.1653777)"><path
       id="path40"
       style="fill:none;stroke:#8a8a8a;stroke-width:0.997479;stroke-linecap:round;stroke-linejoin:round;stroke-miterlimit:3.1;stroke-dasharray:none;stroke-dashoffset:206.966;stroke-opacity:1;paint-order:stroke fill markers"
       d="M 4.1254208,1.2163019 C 2.5705254,1.2162876 1.3099569,2.4766448 1.3097106,4.0315402 V 21.07071 c -1.337e-4,1.5629 1.2668064,2.829952 2.829706,2.829958 l 15.7542354,0.01853 c -1.265544,-0.940701 -1.916485,-2.290867 -1.919976,-3.688049 0.0061,-2.676178 2.603781,-4.869263 5.880165,-4.964284 V 3.6717305 C 23.85378,2.3155793 22.754357,1.2162487 21.398206,1.2163019 Z M 24.34624,15.319206 a 6.2790341,5.0107091 0 0 0 -6.279046,5.010623 6.2790341,5.0107091 0 0 0 6.279046,5.010623 6.2790341,5.0107091 0 0 0 6.279047,-5.010623 6.2790341,5.0107091 0 0 0 -6.279047,-5.010623 z"
       transform="matrix(0.81229912,0,0,0.94790234,-0.3424738,-5.5098539e-4)" /><path
       style="fill:none;stroke:#8a8a8a;stroke-width:0.997479;stroke-linecap:round;stroke-linejoin:round;stroke-miterlimit:3.1;stroke-dasharray:none;stroke-dashoffset:206.966;stroke-opacity:1;paint-order:stroke fill markers"
       id="rect41"
       width="14.546144"
       height="4.396584"
       x="2.7361717"
       y="2.6893997"
       d="M 2.7361717,2.6893997 H 17.282315 V 7.0859838 H 2.7361717 Z"
       transform="matrix(1.0024261,0,0,0.92823965,-0.02428373,0.17534685)" /><path
       style="fill:none;stroke:#8a8a8a;stroke-width:0.997479;stroke-linecap:round;stroke-linejoin:round;stroke-miterlimit:3.1;stroke-dasharray:none;stroke-dashoffset:206.966;stroke-opacity:1;paint-order:stroke fill markers"
       d="M 2.6660136,9.2375028 H 17.165385"
       id="path41" /><path
       style="fill:none;stroke:#8a8a8a;stroke-width:0.997479;stroke-linecap:round;stroke-linejoin:round;stroke-miterlimit:3.1;stroke-dasharray:none;stroke-dashoffset:206.966;stroke-opacity:1;paint-order:stroke fill markers"
       d="M 2.6660136,11.88013 H 17.25893"
       id="path42" /><path
       style="fill:none;stroke:#8a8a8a;stroke-width:0.997479;stroke-linecap:round;stroke-linejoin:round;stroke-miterlimit:3.1;stroke-dasharray:none;stroke-dashoffset:206.966;stroke-opacity:1;paint-order:stroke fill markers"
       d="M 2.6660136,14.592916 H 13.330067"
       id="path43" /><path
       style="fill:none;stroke:#8a8a8a;stroke-width:0.785812;stroke-linecap:round;stroke-linejoin:round;stroke-miterlimit:3.1;stroke-dasharray:none;stroke-dashoffset:206.966;stroke-opacity:1;paint-order:stroke fill markers"
       d="m 5.9166791,17.141999 c 0.038977,1.839706 0.077953,3.679374 -0.4677335,4.587551 -0.5456863,0.908178 -1.6759904,0.884792 -2.8063183,0.861405"
       id="path44" /><path
       style="fill:none;stroke:#8a8a8a;stroke-width:0.785812;stroke-linecap:round;stroke-linejoin:round;stroke-miterlimit:3.1;stroke-dasharray:none;stroke-dashoffset:206.966;stroke-opacity:1;paint-order:stroke fill markers"
       d="m 22.357291,17.561719 c -0.262915,-0.659467 -0.739867,-1.231619 -1.341235,-1.608948 -0.601368,-0.377329 -1.324032,-0.557877 -2.032202,-0.507719 -0.904639,0.06407 -1.773396,0.508628 -2.366612,1.194612 -0.593215,0.685983 -0.907126,1.603235 -0.874534,2.509555 0.03565,0.991242 0.488977,1.96422 1.237213,2.615353 0.748235,0.651133 1.782927,0.966109 2.76461,0.82423 1.032209,-0.149182 1.978764,-0.80546 2.480469,-1.719792"
       id="path48"
       transform="matrix(0.89385136,0,0,0.8033396,2.1377634,4.1755833)" /><path
       style="fill:none;stroke:#8a8a8a;stroke-width:0.415396;stroke-linecap:round;stroke-linejoin:round;stroke-miterlimit:3.1;stroke-dasharray:none;stroke-dashoffset:206.966;stroke-opacity:1;paint-order:stroke fill markers"
       d="m 20.874543,18.456694 1.506402,0.116102 0.305752,-1.347539"
       id="path49" /></g><g
     id="layer3"
     style="display:none"
     transform="translate(-1.1186055,-1.1653777)"><path
       style="fill:none;fill-opacity:1;stroke:#8a8a8a;stroke-width:2.25692;stroke-linecap:square;stroke-linejoin:miter;stroke-miterlimit:3.1;stroke-dasharray:none;stroke-dashoffset:206.966;stroke-opacity:1;paint-order:stroke fill markers"
       d="M 20.501828,6.8668231 C 20.333235,6.4050688 20.164643,5.9433149 19.586701,5.4338033 19.008759,4.9242917 18.021468,4.3670229 16.805459,4.743273 c -1.216008,0.3762501 -2.660705,1.6859939 -2.875954,3.3496356 -0.215249,1.6636417 0.798948,3.6810104 1.129683,5.1362464 0.330736,1.455237 -0.02203,2.348171 -0.556718,3.070277 -0.534689,0.722106 -1.25124,1.2733 -1.967834,1.824526 m 0.372165,0.0951 c 1.094132,-0.336244 2.240364,-0.688499 3.186405,-0.638482 0.946042,0.05002 1.787147,0.465863 2.637034,0.49404 0.849887,0.02818 1.529187,-0.382659 2.072628,-0.711329"
       id="path53"
       transform="matrix(0.88722232,0,0,0.76977398,1.2037827,2.387576)" /><path
       style="fill:none;stroke:#8a8a8a;stroke-width:1.05524;stroke-linecap:round;stroke-linejoin:round;stroke-miterlimit:3.1;stroke-dasharray:none;stroke-dashoffset:206.966;stroke-opacity:1;paint-order:stroke fill markers"
       d="M 2.3277559,10.52997 2.2556762,0.95140566 H 23.87952 V 22.79189 H 12.454923"
       id="path50" /><path
       id="path51"
       style="fill:#8a8a8a;fill-opacity:1;stroke:none;stroke-width:1.4182;stroke-linecap:round;stroke-linejoin:round;stroke-miterlimit:3.1;stroke-dasharray:none;stroke-dashoffset:206.966;stroke-opacity:1;paint-order:stroke fill markers"
       d="M 5.9000554,9.6873966 A 3.8558383,3.8323272 0 0 0 2.0442167,13.519697 3.8558383,3.8323272 0 0 0 5.9000554,17.351998 3.8558383,3.8323272 0 0 0 9.7558938,13.519697 3.8558383,3.8323272 0 0 0 5.9000554,9.6873966 Z m 0.6854201,7.9565914 -1.3915765,0.009 -0.3256167,0.950509 0.4192104,0.410243 h 0.3480342 l -0.6254528,2.841411 0.5234524,2.891318 H 6.2570568 L 6.7866741,21.898894 6.2598589,19.01374 H 6.522706 L 6.9200592,18.6573 Z m -2.3645033,0.05324 c -1.2902119,0.35531 -3.34585047,1.567288 -3.35088057,2.971454 v 4.040785 H 5.0762063 Z m 3.170979,0.01122 -0.7728492,6.988148 3.935422,0.01289 V 20.51346 c -0.0044,-1.292163 -1.9881294,-2.430088 -3.1625728,-2.805012 z" /><path
       style="fill:none;fill-opacity:1;stroke:#8a8a8a;stroke-width:1.86515;stroke-linecap:square;stroke-linejoin:miter;stroke-miterlimit:3.1;stroke-dasharray:none;stroke-dashoffset:206.966;stroke-opacity:1;paint-order:stroke fill markers"
       d="m 12.454824,11.339724 4.673012,-0.06491 h -0.394551"
       id="path56" /></g><g
     id="layer4"
     style="display:none"
     transform="translate(-1.1186055,-1.1653777)"><path
       id="rect56"
       style="fill:none;stroke:#8a8a8a;stroke-width:0.997479;stroke-linecap:square;stroke-linejoin:round;stroke-miterlimit:3.1;stroke-dashoffset:206.966;paint-order:stroke fill markers"
       d="M 17.284667,23.45624 1.2160764,23.432854 V 1.2628485 H 19.831398 l -0.03993,13.1013945" /><ellipse
       style="fill:none;fill-opacity:1;stroke:#8a8a8a;stroke-width:0.93155;stroke-linecap:square;stroke-linejoin:miter;stroke-miterlimit:3.1;stroke-dasharray:none;stroke-dashoffset:206.966;stroke-opacity:1;paint-order:stroke fill markers"
       id="path57"
       cx="19.566139"
       cy="19.180784"
       rx="4.6209517"
       ry="4.6538439" /><ellipse
       style="display:inline;fill:none;fill-opacity:1;stroke:#8a8a8a;stroke-width:0.466725;stroke-linecap:square;stroke-linejoin:round;stroke-miterlimit:3.1;stroke-dasharray:none;stroke-dashoffset:206.966;stroke-opacity:1;paint-order:stroke fill markers"
       id="path58"
       cx="6.0310264"
       cy="5.2192073"
       rx="2.9378085"
       ry="2.9211166" /><rect
       style="fill:none;fill-opacity:1;stroke:#8a8a8a;stroke-width:0.521229;stroke-linecap:square;stroke-linejoin:miter;stroke-miterlimit:3.1;stroke-dasharray:none;stroke-dashoffset:206.966;stroke-opacity:1;paint-order:stroke fill markers"
       id="rect58"
       width="15.060637"
       height="3.7417734"
       x="2.759558"
       y="9.728611" /><path
       style="fill:none;fill-opacity:1;stroke:#8a8a8a;stroke-width:0.521229;stroke-linecap:square;stroke-linejoin:miter;stroke-miterlimit:3.1;stroke-dasharray:none;stroke-dashoffset:206.966;stroke-opacity:1;paint-order:stroke fill markers"
       d="M 2.7127856,15.949309 H 13.423612"
       id="path59" /><path
       style="fill:none;fill-opacity:1;stroke:#8a8a8a;stroke-width:0.521229;stroke-linecap:square;stroke-linejoin:miter;stroke-miterlimit:3.1;stroke-dasharray:none;stroke-dashoffset:206.966;stroke-opacity:1;paint-order:stroke fill markers"
       d="M 2.7595578,18.615322 H 13.283295"
       id="path60" /><path
       style="fill:none;fill-opacity:1;stroke:#8a8a8a;stroke-width:0.521229;stroke-linecap:square;stroke-linejoin:miter;stroke-miterlimit:3.1;stroke-dasharray:none;stroke-dashoffset:206.966;stroke-opacity:1;paint-order:stroke fill markers"
       d="M 2.7127856,21.187792 H 13.423612"
       id="path61" /><path
       style="fill:none;fill-opacity:1;stroke:#8a8a8a;stroke-width:0.309563;stroke-linecap:square;stroke-linejoin:miter;stroke-miterlimit:3.1;stroke-dasharray:none;stroke-dashoffset:206.966;stroke-opacity:1;paint-order:stroke fill markers"
       d="m 5.9779297,2.3399089 c 0,0.7937499 0,0.7937499 0,0.7937499"
       id="path62" /><path
       style="fill:none;fill-opacity:1;stroke:#8a8a8a;stroke-width:0.283104;stroke-linecap:square;stroke-linejoin:miter;stroke-miterlimit:3.1;stroke-dasharray:none;stroke-dashoffset:206.966;stroke-opacity:1;paint-order:stroke fill markers"
       d="m 5.9728946,8.1072905 c 0,-0.5729592 0,-0.5729592 0,-0.5729592"
       id="path63" /><path
       style="fill:none;fill-opacity:1;stroke:#8a8a8a;stroke-width:0.283104;stroke-linecap:square;stroke-linejoin:miter;stroke-miterlimit:3.1;stroke-dasharray:none;stroke-dashoffset:206.966;stroke-opacity:1;paint-order:stroke fill markers"
       d="m 8.950608,5.3100597 c -0.7717409,0 -0.7717409,0 -0.7717409,0"
       id="path64" /><path
       style="fill:none;fill-opacity:1;stroke:#8a8a8a;stroke-width:0.309563;stroke-linecap:square;stroke-linejoin:miter;stroke-miterlimit:3.1;stroke-dasharray:none;stroke-dashoffset:206.966;stroke-opacity:1;paint-order:stroke fill markers"
       d="M 3.1034995,5.298954 H 3.8284682"
       id="path65" /><path
       style="fill:none;fill-opacity:1;stroke:#8a8a8a;stroke-width:0.388938;stroke-linecap:square;stroke-linejoin:miter;stroke-miterlimit:3.1;stroke-dasharray:none;stroke-dashoffset:206.966;stroke-opacity:1;paint-order:stroke fill markers"
       d="M 4.8749242,3.9667783 6.2780892,5.0893104 5.2607946,7.0654343"
       id="path66" /><path
       style="fill:none;fill-opacity:1;stroke:#8a8a8a;stroke-width:0.917046;stroke-linecap:square;stroke-linejoin:miter;stroke-miterlimit:3.1;stroke-dasharray:none;stroke-dashoffset:206.966;stroke-opacity:1;paint-order:stroke fill markers"
       d="m 20.819401,17.660938 c 0,0 -0.401059,-0.776246 -0.950846,-0.859897 -0.549787,-0.08365 -1.102218,0.13116 -1.372527,0.75241 -0.270309,0.62125 0.483985,1.518283 0.388607,2.224153 -0.09538,0.70587 -0.959115,1.744596 -0.959115,1.744596 0,0 0.998407,-0.34762 1.438673,-0.305924 0.440266,0.0417 0.843123,0.332379 1.149283,0.330729 0.30616,-0.0017 0.719336,-0.198438 0.719336,-0.198438"
       id="path67" /><path
       style="fill:none;fill-opacity:1;stroke:#8a8a8a;stroke-width:0.76491;stroke-linecap:square;stroke-linejoin:miter;stroke-miterlimit:3.1;stroke-dasharray:none;stroke-dashoffset:206.966;stroke-opacity:1;paint-order:stroke fill markers"
       d="m 18.012492,19.174023 h 1.884847"
       id="path68" /></g><g
     id="layer5"
     style="display:none"
     transform="translate(-1.1186055,-1.1653777)"><path
       id="rect68"
       style="fill:none;stroke:#8a8a8a;stroke-width:0.924289;stroke-linecap:square;stroke-miterlimit:3.1;stroke-dashoffset:206.966;paint-order:stroke fill markers"
       d="m 21.605443,2.8804359 h 1.344069 v 5.3149253 5.3149248 5.314926 5.314925 H 18.850016 14.750521 10.651025 6.5515299 v -0.590484" /><rect
       style="fill:none;fill-opacity:1;stroke:#8a8a8a;stroke-width:0.975312;stroke-linecap:square;stroke-linejoin:miter;stroke-miterlimit:3.1;stroke-dasharray:none;stroke-dashoffset:206.966;stroke-opacity:1;paint-order:stroke fill markers"
       id="rect68-7"
       width="18.562843"
       height="20.91102"
       x="1.6782813"
       y="1.3806251" /><path
       style="fill:none;fill-opacity:1;stroke:#8a8a8a;stroke-width:0.918104;stroke-linecap:square;stroke-linejoin:miter;stroke-miterlimit:3.1;stroke-dasharray:none;stroke-dashoffset:206.966;stroke-opacity:1;paint-order:stroke fill markers"
       d="M 3.7417734,15.902537 H 17.399246"
       id="path69" /><path
       style="fill:none;fill-opacity:1;stroke:#8a8a8a;stroke-width:0.918104;stroke-linecap:square;stroke-linejoin:miter;stroke-miterlimit:3.1;stroke-dasharray:none;stroke-dashoffset:206.966;stroke-opacity:1;paint-order:stroke fill markers"
       d="M 3.6950012,19.64431 H 17.305702"
       id="path70" /><circle
       style="fill:none;fill-opacity:1;stroke:#8a8a8a;stroke-width:0.918104;stroke-linecap:square;stroke-linejoin:miter;stroke-miterlimit:3.1;stroke-dasharray:none;stroke-dashoffset:206.966;stroke-opacity:1;paint-order:stroke fill markers"
       id="path71"
       cx="11.903517"
       cy="8.1149702"
       r="5.6828184" /><path
       style="fill:#8a8a8a;fill-opacity:1;stroke:#ffffff;stroke-width:0.185208;stroke-linecap:round;stroke-linejoin:round;stroke-miterlimit:3.1;stroke-dasharray:none;stroke-dashoffset:206.966;stroke-opacity:1;paint-order:stroke fill markers"
       id="rect71"
       width="17.07184"
       height="1.2628485"
       x="3.8237185"
       y="14.061886"
       d="M 4.4725692,14.061886 H 20.157425 a 0.7381338,0.7381338 45 0 1 0.738134,0.738134 0.70470661,0.70470661 148.2306 0 1 -0.847288,0.524714 H 4.5453159 A 0.72159735,0.72159735 45 0 1 3.8237185,14.603137 0.59747805,0.59747805 140.16618 0 1 4.4725692,14.061886 Z"
       transform="matrix(0.46826351,0.45088154,-1.1192957,1.1624458,30.964854,-6.0923039)" /><ellipse
       style="fill:#8a8a8a;fill-opacity:1;stroke:none;stroke-width:0.185208;stroke-linecap:round;stroke-linejoin:round;stroke-miterlimit:3.1;stroke-dasharray:none;stroke-dashoffset:206.966;stroke-opacity:1;paint-order:stroke fill markers"
       id="path72"
       cx="7.9512682"
       cy="8.0097342"
       rx="0.77174073"
       ry="0.73666161" /><ellipse
       style="fill:#8a8a8a;fill-opacity:1;stroke:none;stroke-width:0.185208;stroke-linecap:round;stroke-linejoin:round;stroke-miterlimit:3.1;stroke-dasharray:none;stroke-dashoffset:206.966;stroke-opacity:1;paint-order:stroke fill markers"
       id="path72-2"
       cx="10.270601"
       cy="10.136018"
       rx="0.77174073"
       ry="0.73666161" /><ellipse
       style="fill:#8a8a8a;fill-opacity:1;stroke:none;stroke-width:0.185208;stroke-linecap:round;stroke-linejoin:round;stroke-miterlimit:3.1;stroke-dasharray:none;stroke-dashoffset:206.966;stroke-opacity:1;paint-order:stroke fill markers"
       id="path72-4"
       cx="15.859875"
       cy="9.1771879"
       rx="0.77174073"
       ry="0.73666161" /><ellipse
       style="fill:#8a8a8a;fill-opacity:1;stroke:none;stroke-width:0.185208;stroke-linecap:round;stroke-linejoin:round;stroke-miterlimit:3.1;stroke-dasharray:none;stroke-dashoffset:206.966;stroke-opacity:1;paint-order:stroke fill markers"
       id="path72-4-2"
       cx="12.819685"
       cy="7.0724401"
       rx="0.77174073"
       ry="0.73666161" /><path
       style="fill:none;fill-opacity:1;stroke:#8a8a8a;stroke-width:0.370417;stroke-linecap:round;stroke-linejoin:round;stroke-miterlimit:3.1;stroke-dasharray:none;stroke-dashoffset:206.966;stroke-opacity:1;paint-order:stroke fill markers"
       d="m 7.9512683,8.138357 c 2.2450637,2.034589 2.2450637,2.034589 2.2450637,2.034589"
       id="path75" /><path
       style="fill:none;fill-opacity:1;stroke:#8a8a8a;stroke-width:0.370417;stroke-linecap:round;stroke-linejoin:round;stroke-miterlimit:3.1;stroke-dasharray:none;stroke-dashoffset:206.966;stroke-opacity:1;paint-order:stroke fill markers"
       d="m 10.336649,10.126174 2.525697,-2.9934186 3.040191,2.1515197"
       id="path76" /></g><g
     id="layer6"
     style="display:none"
     transform="translate(-1.1186055,-1.1653777)"><circle
       style="display:inline;fill:none;stroke:#8a8a8a;stroke-width:0.997479;stroke-linecap:round;stroke-linejoin:round;stroke-miterlimit:3.1;stroke-dasharray:none;stroke-dashoffset:206.966;paint-order:stroke fill markers"
       id="path7"
       cx="6.396841"
       cy="18.405537"
       r="4.6304445" /><circle
       style="display:inline;fill:none;stroke:#8a8a8a;stroke-width:0.997479;stroke-linecap:round;stroke-linejoin:round;stroke-miterlimit:3.1;stroke-dasharray:none;stroke-dashoffset:206.966;paint-order:stroke fill markers"
       id="path7-5"
       cx="17.994549"
       cy="6.6174645"
       r="4.6304445" /><path
       style="display:inline;fill:none;stroke:#8a8a8a;stroke-width:0.997479;stroke-linecap:round;stroke-linejoin:round;stroke-miterlimit:3.1;stroke-dasharray:none;stroke-dashoffset:206.966;paint-order:stroke fill markers"
       d="M 13.559896,2.5466146 C 12.038617,1.5785609 10.169563,1.1704172 8.3832218,1.4161889 6.5968809,1.6619606 4.9074934,2.5596886 3.7041666,3.9026041 2.5945255,5.1409662 1.9032379,6.7477388 1.7671107,8.4049393 1.6309835,10.06214 2.0508042,11.760182 2.9434895,13.163021"
       id="path13"
       transform="matrix(0.91225658,0,0,0.91225658,0.10907366,0.07433632)" /><path
       style="display:inline;fill:none;stroke:#8a8a8a;stroke-width:0.997479;stroke-linecap:round;stroke-linejoin:round;stroke-miterlimit:3.1;stroke-dasharray:none;stroke-dashoffset:206.966;paint-order:stroke fill markers"
       d="M 13.559896,2.5466146 C 12.038617,1.5785609 10.169563,1.1704172 8.3832218,1.4161889 6.5968809,1.6619606 4.9074934,2.5596886 3.7041666,3.9026041 2.5945255,5.1409662 1.9032379,6.7477388 1.7671107,8.4049393 1.6309835,10.06214 2.0508042,11.760182 2.9434895,13.163021"
       id="path13-1"
       transform="matrix(-0.86583812,0,0,-0.86583812,24.855748,23.452806)" /><path
       style="display:inline;fill:none;stroke:#8a8a8a;stroke-width:0.880078;stroke-linecap:round;stroke-linejoin:round;stroke-miterlimit:3.1;stroke-dasharray:none;stroke-dashoffset:206.966;paint-order:stroke fill markers"
       d="m 21.240258,14.015471 0.908152,-2.267138 2.285031,0.901042"
       id="path17" /><path
       style="display:inline;fill:none;stroke:#8a8a8a;stroke-width:0.952486;stroke-linecap:round;stroke-linejoin:round;stroke-miterlimit:3.1;stroke-dasharray:none;stroke-dashoffset:206.966;paint-order:stroke fill markers"
       d="M 0.60588865,11.550769 3.033487,12.325622 3.892028,9.8663056"
       id="path18" /><path
       id="path20"
       style="fill:#8a8a8a;fill-opacity:1;stroke:#8a8a8a;stroke-width:0.814929;stroke-linecap:round;stroke-linejoin:round;stroke-miterlimit:3.1;stroke-dasharray:none;stroke-dashoffset:206.966;paint-order:stroke fill markers"
       d="m 6.2577966,15.615633 a 1.2728527,1.2728527 0 0 0 -1.272886,1.272886 1.2728527,1.2728527 0 0 0 1.272886,1.272887 1.2728527,1.2728527 0 0 0 1.272887,-1.272887 1.2728527,1.2728527 0 0 0 -1.272887,-1.272886 z m 1.18022,3.04634 a 1.6795424,1.9297007 0 0 1 -1.125869,0.501111 1.6795424,1.9297007 0 0 1 -0.994341,-0.380453 2.5513975,2.522401 0 0 0 -1.365282,2.226193 2.5513975,2.522401 0 0 0 0.09892,0.672315 4.0666678,4.0666678 0 0 0 2.435171,0.822865 4.0666678,4.0666678 0 0 0 2.485444,-0.860367 2.5513975,2.522401 0 0 0 0.08316,-0.634813 2.5513975,2.522401 0 0 0 -1.617196,-2.346851 z" /><path
       id="path20-6"
       style="fill:#8a8a8a;fill-opacity:1;stroke:#8a8a8a;stroke-width:0.814929;stroke-linecap:round;stroke-linejoin:round;stroke-miterlimit:3.1;stroke-dasharray:none;stroke-dashoffset:206.966;paint-order:stroke fill markers"
       d="m 17.793987,3.7147556 a 1.2728527,1.2728527 0 0 0 -1.272886,1.272886 1.2728527,1.2728527 0 0 0 1.272886,1.272887 1.2728527,1.2728527 0 0 0 1.272887,-1.272887 1.2728527,1.2728527 0 0 0 -1.272887,-1.272886 z m 1.18022,3.04634 a 1.6795424,1.9297007 0 0 1 -1.125869,0.501111 1.6795424,1.9297007 0 0 1 -0.994341,-0.380453 2.5513975,2.522401 0 0 0 -1.365282,2.226193 2.5513975,2.522401 0 0 0 0.09892,0.672315 4.0666678,4.0666678 0 0 0 2.435171,0.8228654 4.0666678,4.0666678 0 0 0 2.485444,-0.8603674 2.5513975,2.522401 0 0 0 0.08316,-0.634813 2.5513975,2.522401 0 0 0 -1.617196,-2.346851 z" /></g><g
     id="layer7"
     style="display:none"
     transform="translate(-1.1186055,-1.1653777)"><path
       style="fill:none;stroke:#8a8a8a;stroke-width:0.821127;stroke-linecap:round;stroke-linejoin:round;stroke-miterlimit:3.1;stroke-dasharray:none;stroke-dashoffset:206.966;stroke-opacity:1;paint-order:stroke fill markers"
       id="rect3"
       width="23.686113"
       height="7.1287646"
       x="0.62172669"
       y="17.085527"
       d="M 2.2419834,17.085527 H 22.893381 a 1.414459,1.414459 45 0 1 1.414459,1.414459 v 3.906961 a 1.8073453,1.8073453 135 0 1 -1.807345,1.807345 H 2.3168187 A 1.695092,1.695092 45 0 1 0.62172669,22.5192 V 18.705784 A 1.6202567,1.6202567 135 0 1 2.2419834,17.085527 Z" /><path
       id="rect4"
       style="fill:none;stroke:#8a8a8a;stroke-width:0.785293;stroke-linecap:round;stroke-linejoin:round;stroke-miterlimit:3.1;stroke-dasharray:none;stroke-dashoffset:206.966;stroke-opacity:1;paint-order:stroke fill markers"
       d="m 22.875816,9.6067343 1e-6,7.4225627 H 2.2408359 V 4.3043341 A 3.3263466,3.3263466 0 0 1 5.5671825,0.97798747 v 0 h 9.4289785" /><path
       style="fill:none;stroke:#8a8a8a;stroke-width:0.79375;stroke-linecap:round;stroke-linejoin:round;stroke-miterlimit:3.1;stroke-dasharray:none;stroke-dashoffset:206.966;stroke-opacity:1;paint-order:stroke fill markers"
       d="M 14.99048,0.98221549 22.87159,9.5882943"
       id="path8" /><path
       style="fill:none;stroke:#8a8a8a;stroke-width:0.79375;stroke-linecap:round;stroke-linejoin:round;stroke-miterlimit:3.1;stroke-dasharray:none;stroke-dashoffset:206.966;stroke-opacity:1;paint-order:stroke fill markers"
       d="m 14.873549,1.0991459 c -0.03898,2.8998746 -0.07795,5.7997486 1.239491,7.2613791 1.317443,1.4616305 3.991199,1.485016 6.665007,1.508402"
       id="path9" /><path
       style="fill:none;stroke:#8a8a8a;stroke-width:0.79375;stroke-linecap:round;stroke-linejoin:round;stroke-miterlimit:3.1;stroke-dasharray:none;stroke-dashoffset:206.966;stroke-opacity:1;paint-order:stroke fill markers"
       d="m 0.69453124,21.100521 c 1.52135416,0 3.04270826,0 4.56406246,0"
       id="path10" /><path
       style="fill:none;stroke:#8a8a8a;stroke-width:0.79375;stroke-linecap:round;stroke-linejoin:round;stroke-miterlimit:3.1;stroke-dasharray:none;stroke-dashoffset:206.966;stroke-opacity:1;paint-order:stroke fill markers"
       d="m 24.110156,21.166667 c -1.43316,0 -2.866319,0 -4.299479,0"
       id="path11" /><path
       style="fill:none;stroke:#8a8a8a;stroke-width:0.79375;stroke-linecap:round;stroke-linejoin:round;stroke-miterlimit:3.1;stroke-dasharray:none;stroke-dashoffset:206.966;stroke-opacity:1;paint-order:stroke fill markers"
       d="m 3.9026041,3.96875 c 3.1198785,0 6.2397569,0 9.3596349,0"
       id="path12" /><path
       style="fill:none;stroke:#8a8a8a;stroke-width:0.79375;stroke-linecap:round;stroke-linejoin:round;stroke-miterlimit:3.1;stroke-dasharray:none;stroke-dashoffset:206.966;stroke-opacity:1;paint-order:stroke fill markers"
       d="m 3.9026041,6.5484374 c 3.1198785,0 6.2397569,0 9.3596349,0"
       id="path14" /><path
       style="fill:none;stroke:#8a8a8a;stroke-width:0.79375;stroke-linecap:round;stroke-linejoin:round;stroke-miterlimit:3.1;stroke-dasharray:none;stroke-dashoffset:206.966;stroke-opacity:1;paint-order:stroke fill markers"
       d="m 3.935677,9.2273436 c 3.5608509,0 7.121701,0 10.682552,0"
       id="path15" /><path
       style="fill:none;stroke:#8a8a8a;stroke-width:0.79375;stroke-linecap:round;stroke-linejoin:round;stroke-miterlimit:3.1;stroke-dasharray:none;stroke-dashoffset:206.966;stroke-opacity:1;paint-order:stroke fill markers"
       d="m 3.935677,11.840104 c 4.8727431,0 9.745486,0 14.618229,0"
       id="path16" /><path
       style="fill:none;stroke:#8a8a8a;stroke-width:0.79375;stroke-linecap:round;stroke-linejoin:round;stroke-miterlimit:3.1;stroke-dasharray:none;stroke-dashoffset:206.966;stroke-opacity:1;paint-order:stroke fill markers"
       d="m 3.9026041,14.552083 c 5.3357639,0 10.6715279,0 16.0072919,0"
       id="path19" /><path
       d="m 6.8047526,18.18442 v 5.098913 h 0.6785115 v -2.039669 h 0.4960937 c 0.633898,0 1.1299912,-0.148944 1.4882813,-0.447518 0.3582899,-0.298574 0.5374349,-0.71543 0.5374349,-1.250569 0,-0.362884 -0.086931,-0.655717 -0.2614828,-0.8785 C 9.5690396,18.444293 9.3231176,18.303044 9.0061686,18.243331 8.7948692,18.204284 8.5399325,18.18442 8.2413574,18.18442 Z m 3.7894324,0 v 5.098913 h 1.150318 c 0.38585,0 0.721345,-0.04691 1.00614,-0.141077 0.284794,-0.09417 0.53841,-0.264295 0.761194,-0.510046 0.23197,-0.254937 0.393086,-0.549894 0.482658,-0.885217 0.09187,-0.337619 0.137459,-0.708886 0.137459,-1.113111 0,-0.767108 -0.169614,-1.366554 -0.50953,-1.798339 C 13.284805,18.40146 12.71981,18.18442 11.927437,18.18442 Z m 4.529956,0 v 5.098913 h 0.678512 v -2.23914 h 2.104781 v -0.510046 h -2.104781 v -1.839681 h 2.466516 V 18.18442 Z m -3.534668,0.506429 c 0.542029,0 0.922309,0.07022 1.140499,0.210323 0.220486,0.137803 0.387975,0.356165 0.502812,0.65474 0.117133,0.296279 0.1757,0.677363 0.1757,1.1436 0,0.475423 -0.06201,0.866843 -0.186035,1.174605 -0.121728,0.307762 -0.301676,0.535138 -0.540536,0.682129 -0.236563,0.144694 -0.592728,0.217041 -1.068152,0.217041 h -0.341064 v -4.078821 z m -4.1062089,0.0036 h 0.675411 c 0.222783,0 0.3881473,0.01246 0.4960937,0.03772 0.1102431,0.02297 0.2122753,0.06695 0.3064413,0.131258 0.213596,0.146991 0.3203938,0.375171 0.3203938,0.685229 0,0.310059 -0.090376,0.585667 -0.271818,0.826823 -0.1814418,0.238861 -0.5492627,0.358635 -1.1027751,0.358635 H 7.4832641 Z"
       style="-inkscape-font-specification:'Lucida Sans Typewriter Semi-Condensed';fill:#8a8a8a;stroke-width:0.79375;stroke-linecap:round;stroke-linejoin:round;stroke-miterlimit:3.1;stroke-dashoffset:206.966;paint-order:stroke fill markers"
       id="path21" /></g><g
     id="layer8"
     style="display:none"
     transform="translate(-1.1186055,-1.1653777)"><path
       id="rect5-8"
       style="fill:none;stroke:#8a8a8a;stroke-width:0.47724;stroke-linecap:round;stroke-linejoin:round;stroke-miterlimit:3.1;stroke-dasharray:none;stroke-dashoffset:206.966;stroke-opacity:1;paint-order:stroke fill markers"
       d="M 21.629687,13.232402 V 5.5872558 L 15.602665,0.56223958 v 0 H 2.5662516 C 1.660436,0.56235374 0.92615583,1.2966339 0.92604166,2.2024495 V 22.254972 c 1.1425e-4,1.188933 0.96390674,2.152726 2.15284014,2.15284 H 19.658748 c 1.088472,-1.14e-4 1.970825,-0.999397 1.970939,-2.087869" /><path
       id="rect5-8-5"
       style="fill:none;stroke:#8a8a8a;stroke-width:0.344682;stroke-linecap:round;stroke-linejoin:round;stroke-miterlimit:3.1;stroke-dasharray:none;stroke-dashoffset:206.966;stroke-opacity:1;paint-order:stroke fill markers"
       d="M 20.85018,13.295614 V 6.2824732 c 0,0 -3.834065,0.5632337 -5.038382,-0.625765 C 14.84527,4.7024736 15.257871,1.6198989 15.257871,1.6198989 v 0 0 H 3.1617413 C 2.3212598,1.6200045 1.6399414,2.3013229 1.6398355,3.1418044 V 21.747989 c 1.061e-4,1.103179 0.8943825,1.997455 1.9975611,1.997561 H 19.021399 c 1.009964,-1.05e-4 1.828675,-0.432946 1.828781,-1.44291" /><path
       d="m 7.1763061,3.1781006 c -1.0065918,0 -1.7823941,0.2208608 -2.3280233,0.6630086 -0.5362218,0.4421478 -0.804602,1.0723968 -0.804602,1.8908406 0,0.3574812 0.051548,0.7102595 0.1550293,1.0583334 0.1034814,0.3386664 0.2025487,0.6257443 0.2966227,0.8609293 H 3.1827514 v 0.8609294 h 1.6231568 c 0.094074,0.235185 0.1693816,0.465653 0.225826,0.6914306 0.056444,0.2257776 0.084233,0.4749434 0.084233,0.747758 0,0.3762955 -0.0657,0.7058315 -0.197404,0.9880535 -0.1317036,0.282222 -0.2964713,0.517235 -0.4940267,0.705383 -0.1975554,0.188148 -0.3951733,0.343309 -0.5927287,0.465605 l -0.4511352,0.282153 v 1.270207 l 0.6206339,-0.324528 c 0.2539998,-0.131704 0.5031656,-0.235316 0.747758,-0.310576 0.2539998,-0.07526 0.5410777,-0.112654 0.8609293,-0.112654 0.188148,0 0.4095256,0.03285 0.6635254,0.0987 0.2539998,0.06585 0.4981036,0.136097 0.7332886,0.211356 0.2163702,0.07526 0.4751432,0.146022 0.77618,0.211874 0.3104442,0.06585 0.6116746,0.0987 0.903304,0.0987 0.7243698,0 1.2702208,-0.324474 1.6371092,-0.973584 v -1.580265 c -0.178741,0.310444 -0.3905107,0.564155 -0.6351031,0.76171 -0.2445925,0.188148 -0.5271252,0.282153 -0.8469768,0.282153 -0.2069628,0 -0.3949734,-0.0187 -0.5643066,-0.05633 -0.1693332,-0.03763 -0.3573438,-0.08918 -0.5643066,-0.155029 -0.2916294,-0.09407 -0.5271595,-0.164837 -0.7059001,-0.211874 -0.1693332,-0.04704 -0.3477366,-0.07028 -0.5358846,-0.07028 -0.1693332,0 -0.3386461,0.0187 -0.5079793,0.05633 -0.1599258,0.02822 -0.2680836,0.05147 -0.324528,0.07028 l -0.042375,-0.07028 c 0.846666,-0.555037 1.2696899,-1.199438 1.2696899,-1.9332155 0,-0.2445924 -0.018698,-0.4467555 -0.056327,-0.6066813 C 6.7717738,8.8886174 6.7202259,8.705152 6.6543741,8.4981892 l 2.2293213,0.013953 V 7.6512125 H 6.3861735 C 6.2826921,7.4160275 6.1790795,7.1244043 6.0755981,6.7763305 5.9721167,6.4282567 5.9205688,6.0613259 5.9205688,5.6756225 c 0,-0.5550366 0.1036126,-0.963908 0.3105754,-1.2273152 0.2163702,-0.2728146 0.4983861,-0.4092774 0.8464599,-0.4092774 0.3104442,0 0.5454575,0.1030958 0.7053833,0.3100586 0.1599258,0.1975554 0.2680836,0.4421759 0.324528,0.7338053 0.065852,0.2916294 0.099219,0.5832526 0.099219,0.874882 0.5832589,0 1.0204353,-0.1081578 1.3120647,-0.324528 0.3010368,-0.2163702 0.451652,-0.4887789 0.451652,-0.8180379 0,-0.4609626 -0.2163156,-0.8471078 -0.649056,-1.1575521 C 8.8980618,3.3378062 8.1828979,3.1781006 7.1763061,3.1781006 Z"
       style="font-stretch:semi-condensed;font-size:14.1111px;line-height:0.3;font-family:'Lucida Sans Typewriter';-inkscape-font-specification:'Lucida Sans Typewriter Semi-Condensed';letter-spacing:-0.124354px;word-spacing:0.015875px;fill:none;stroke:#8a8a8a;stroke-width:0.396875;stroke-linecap:round;stroke-linejoin:round;stroke-miterlimit:3.1;stroke-dashoffset:206.966;paint-order:stroke fill markers"
       id="path29" /><path
       style="fill:none;fill-opacity:1;stroke:#8a8a8a;stroke-width:0.477044;stroke-linecap:round;stroke-linejoin:round;stroke-miterlimit:3.1;stroke-dasharray:none;stroke-dashoffset:206.966;stroke-opacity:1;paint-order:stroke fill markers"
       id="rect23"
       width="11.602162"
       height="5.7151828"
       x="12.521315"
       y="15.530948"
       d="m 13.925079,15.530948 h 8.899276 a 1.2991224,1.2991224 45 0 1 1.299122,1.299122 v 3.073943 A 1.3421173,1.3421173 135 0 1 22.78136,21.24613 h -8.987633 a 1.2724124,1.2724124 45 0 1 -1.272412,-1.272412 v -3.039006 a 1.403764,1.403764 135 0 1 1.403764,-1.403764 z"
       transform="matrix(1.0271256,0,0,1.3381356,-0.44739685,-6.7469866)" /><rect
       style="fill:#8a8a8a;fill-opacity:1;stroke:none;stroke-width:0.546961;stroke-linecap:round;stroke-linejoin:round;stroke-miterlimit:3.1;stroke-dasharray:none;stroke-dashoffset:206.966;stroke-opacity:1;paint-order:stroke fill markers"
       id="rect24"
       width="11.790495"
       height="1.9347656"
       x="12.36927"
       y="15.197004" /><path
       style="fill:none;fill-opacity:1;stroke:#8a8a8a;stroke-width:0.477044;stroke-linecap:round;stroke-linejoin:round;stroke-miterlimit:3.1;stroke-dasharray:none;stroke-dashoffset:206.966;stroke-opacity:1;paint-order:stroke fill markers"
       d="m 2.6127604,17.131771 c 2.6568577,0 5.3137154,0 7.9705726,0"
       id="path25"
       transform="matrix(0.82577988,0,0,1,0.61207761,1.0914062)" /><path
       style="fill:none;fill-opacity:1;stroke:#8a8a8a;stroke-width:0.477044;stroke-linecap:round;stroke-linejoin:round;stroke-miterlimit:3.1;stroke-dasharray:none;stroke-dashoffset:206.966;stroke-opacity:1;paint-order:stroke fill markers"
       d="m 2.5796875,19.28151 c 2.700955,0 5.4019097,0 8.1028645,0"
       id="path26"
       transform="translate(0.29765625,1.0748698)" /><path
       style="fill:none;fill-opacity:1;stroke:#8a8a8a;stroke-width:0.477044;stroke-linecap:round;stroke-linejoin:round;stroke-miterlimit:3.1;stroke-dasharray:none;stroke-dashoffset:206.966;stroke-opacity:1;paint-order:stroke fill markers"
       d="m 2.5796875,21.695833 c 3.0868056,0 6.1736112,0 9.2604165,0"
       id="path27"
       transform="matrix(0.97622476,0,0,1,0.32024509,0.64492186)" /><path
       style="fill:none;fill-opacity:1;stroke:#8a8a8a;stroke-width:0.477044;stroke-linecap:round;stroke-linejoin:round;stroke-miterlimit:3.1;stroke-dasharray:none;stroke-dashoffset:206.966;stroke-opacity:1;paint-order:stroke fill markers"
       d="m 2.6789062,15.246615 c 3.351389,0 6.7027779,0 10.0541668,0"
       id="path28"
       transform="matrix(0.60744166,0,0,1,1.1261949,0.87124465)" /></g><g
     id="layer9"
     style="display:none"
     transform="translate(-1.1186055,-1.1653777)"><path
       id="path39"
       style="fill:#aa800b;stroke-width:0.477044;stroke-linecap:round;stroke-linejoin:round;stroke-miterlimit:3.1;stroke-dashoffset:206.966;paint-order:stroke fill markers"
       d="M 20.086112,10.203512 C 20.213911,9.3600132 20.201676,8.3176301 20.14554,7.4047159 20.07202,6.2090924 19.903338,5.8858089 19.363676,5.4255086 18.903107,5.0326699 18.881333,5.1017455 17.590657,5.0332845 c -0.484003,-0.025673 -1.002675,-0.042136 -1.514119,-0.037724 -0.468857,0.00405 -0.930143,0.026037 -1.354439,0.072864 z"
       transform="translate(3.8364583,-2.9765625)" /><path
       id="path47"
       style="fill:#aa800b;stroke-width:0.477044;stroke-linecap:round;stroke-linejoin:round;stroke-miterlimit:3.1;stroke-dashoffset:206.966;paint-order:stroke fill markers"
       d="m 14.080794,5.1666097 c -0.106355,0.021738 -0.209861,0.045057 -0.306441,0.07183 -3.005622,0.8332026 -8.3927694,7.3096313 -8.3927694,7.3096313 1.7901755,2.22828 3.1584239,4.340148 4.9790244,6.394442 0,0 8.481785,-4.707188 9.564274,-8.021216 0.01295,-0.03965 0.02228,-0.08552 0.03411,-0.127124 z m -0.775146,2.2530924 a 3.4845264,3.4845264 0 0 1 3.484541,3.4845419 3.4845264,3.4845264 0 0 1 -3.484541,3.484542 3.4845264,3.4845264 0 0 1 -3.4845421,-3.484542 3.4845264,3.4845264 0 0 1 3.4845421,-3.4845419 z"
       transform="translate(3.8364583,-2.9765625)" /><path
       id="path22"
       style="fill:#aa800b;stroke-width:0.332718;stroke-linecap:round;stroke-linejoin:round;stroke-miterlimit:3.1;stroke-dashoffset:206.966;paint-order:stroke fill markers"
       d="M 9.07114,9.3436207 5.3952856,4.7062759 C 7.816313,3.1527548 10.921184,3.3576894 14.208335,4.0313416 12.447528,5.6730134 10.653191,7.2252672 9.07114,9.3436207 Z" /><path
       id="path22-5"
       style="fill:#aa800b;stroke-width:0.477044;stroke-linecap:round;stroke-linejoin:round;stroke-miterlimit:3.1;stroke-dashoffset:206.966;paint-order:stroke fill markers"
       transform="matrix(-0.67132575,-0.11635659,0.07525944,-0.71156189,20.592433,19.189382)"
       d="M 1.2650928,9.8428827 C 1.092977,5.020782 0.9370403,-0.00963149 4.0447068,-3.298307 L 9.5503845,2.7812917 C 6.6532322,4.900112 3.9331922,7.3264113 1.2650928,9.8428827 Z" /><path
       id="rect29"
       style="fill:#aa800b;stroke-width:0.477044;stroke-linecap:round;stroke-linejoin:round;stroke-miterlimit:3.1;stroke-dashoffset:206.966;paint-order:stroke fill markers"
       transform="rotate(-37.485312,-2.467953,-7.1415826)"
       d="m -4.3819109,13.27152 0.6949519,-0.04891 -0.013674,8.119523 -0.5200162,0.0055 a 1.08811,1.08811 44.907728 0 1 -1.0996433,-1.096107 l 0.044647,-6.028282 a 0.96124251,0.96124251 133.19936 0 1 0.8937346,-0.951752 z" /><path
       id="path31"
       style="fill:#aa800b;stroke-width:0.477044;stroke-linecap:round;stroke-linejoin:round;stroke-miterlimit:3.1;stroke-dashoffset:206.966;paint-order:stroke fill markers"
       transform="matrix(0.59055482,-0.0669968,0.06661309,0.64553404,5.1960092,5.4225247)"
       d="M 0.04083531,17.218662 C 0.86819977,14.473906 1.905526,12.045344 3.6859771,10.735894 l 1.256338,1.992429 c -1.1429414,-0.757139 -2.9642407,1.383626 -2.4865081,2.934784 0.088915,0.288699 0.3906959,0.696125 0.6352535,0.874 1.3881296,1.009629 3.9365755,-0.179991 3.6561178,-1.040472 l 1.4069485,2.342471 C 5.7420929,19.116308 3.2336897,18.588225 0.73632513,18.26693 0.2027668,18.198286 -0.11490707,17.735332 0.04083531,17.218662 Z" /><ellipse
       style="fill:#aa800b;fill-opacity:1;stroke:none;stroke-width:0.481564;stroke-linecap:round;stroke-linejoin:round;stroke-miterlimit:3.1;stroke-dashoffset:206.966;paint-order:stroke fill markers"
       id="path45"
       cx="17.264729"
       cy="7.9891143"
       rx="2.4731236"
       ry="2.4353662" /><path
       style="fill:none;fill-opacity:1;stroke:#aa800b;stroke-width:0.477044;stroke-linecap:square;stroke-linejoin:miter;stroke-miterlimit:3.1;stroke-dashoffset:206.966;stroke-opacity:1;paint-order:stroke fill markers"
       d="M 11.1125,18.851562 C 9.8336805,19.821701 8.554861,20.79184 7.2760416,21.761979"
       id="path52"
       transform="translate(-1.1459181,-0.60803817)" /><path
       style="fill:none;fill-opacity:1;stroke:#aa800b;stroke-width:0.477044;stroke-linecap:square;stroke-linejoin:miter;stroke-miterlimit:3.1;stroke-dashoffset:206.966;stroke-opacity:1;paint-order:stroke fill markers"
       d="M 11.1125,18.851562 C 9.8336805,19.821701 8.554861,20.79184 7.2760416,21.761979"
       id="path52-1"
       transform="translate(-4.6917549,-5.6559732)" /><path
       style="fill:none;fill-opacity:1;stroke:#aa800b;stroke-width:0.477044;stroke-linecap:square;stroke-linejoin:miter;stroke-miterlimit:3.1;stroke-dashoffset:206.966;stroke-opacity:1;paint-order:stroke fill markers"
       d="m 5.5191157,17.516176 c -0.53788,0.428745 -1.0757599,0.85749 -1.6136398,1.286235"
       id="path73" /><path
       style="fill:none;fill-opacity:1;stroke:#aa800b;stroke-width:0.477044;stroke-linecap:square;stroke-linejoin:miter;stroke-miterlimit:3.1;stroke-dashoffset:206.966;stroke-opacity:1;paint-order:stroke fill markers"
       d="M 5.1449382,21.842602 C 4.8651446,22.004141 4.585351,22.16568 4.3055579,22.327218"
       id="path74"
       transform="rotate(-6.0739092,4.1692956,20.066262)" /><path
       style="fill:none;fill-opacity:1;stroke:#aa800b;stroke-width:0.477044;stroke-linecap:square;stroke-linejoin:miter;stroke-miterlimit:3.1;stroke-dashoffset:206.966;stroke-opacity:1;paint-order:stroke fill markers"
       d="M 5.1449382,21.842602 C 4.8651446,22.004141 4.585351,22.16568 4.3055579,22.327218"
       id="path74-1"
       transform="rotate(-6.0739092,-45.954874,49.696417)" /></g><g
     id="layer10"
     style="display:none"
     transform="translate(-1.1186055,-1.1653777)"><path
       id="path80"
       style="fill:none;fill-opacity:1;stroke:#aa800b;stroke-width:0.442474;stroke-linecap:square;stroke-linejoin:miter;stroke-miterlimit:3.1;stroke-dashoffset:206.966;stroke-opacity:1;paint-order:stroke fill markers"
       d="m 18.82723,8.1825147 c -0.995008,-3.1652089 -3.635198,-5.278249 -6.595038,-5.2782492 -2.9576533,-2e-7 -5.596388,2.109967 -6.5930329,5.2718763 0,0 -0.081744,0.371719 -0.4070543,0.6402459 C 4.2198844,9.6519245 2.6780267,9.3769266 2.6014463,9.3769266" /><path
       id="path78"
       style="fill:none;fill-opacity:1;stroke:#aa800b;stroke-width:0.442474;stroke-linecap:square;stroke-linejoin:miter;stroke-miterlimit:3.1;stroke-dashoffset:206.966;stroke-opacity:1;paint-order:stroke fill markers"
       d="m 5.2466451,11.409709 c 0.1281872,2.083041 3.0383746,3.932283 3.8596036,5.260765 0.410614,0.66424 0.388759,2.595064 0.825387,4.331807 0.5526463,2.198225 4.1624013,2.14057 4.7637993,0.188586 0.533464,-1.731479 0.236027,-3.886472 0.664134,-4.546007 0.856212,-1.31907 3.735713,-3.254556 3.869633,-5.440043 0.03193,-0.611522 -0.196456,-1.09306 0.252351,-1.148301 0.970183,-0.1194165 1.913333,0.01731 2.923608,-0.05792" /><ellipse
       style="fill:none;fill-opacity:1;stroke:#aa800b;stroke-width:0.227396;stroke-linecap:square;stroke-linejoin:miter;stroke-miterlimit:3.1;stroke-dasharray:none;stroke-dashoffset:206.966;stroke-opacity:1;paint-order:stroke fill markers"
       id="path81-2"
       cx="23.640028"
       cy="10.011786"
       rx="1.0598786"
       ry="0.9343068" /><ellipse
       style="fill:none;fill-opacity:1;stroke:#aa800b;stroke-width:0.227396;stroke-linecap:square;stroke-linejoin:miter;stroke-miterlimit:3.1;stroke-dasharray:none;stroke-dashoffset:206.966;stroke-opacity:1;paint-order:stroke fill markers"
       id="path81-2-8"
       cx="1.4241489"
       cy="9.3803406"
       rx="1.0598786"
       ry="0.9343068" /><path
       style="fill:none;fill-opacity:1;stroke:#aa800b;stroke-width:0.347484;stroke-linecap:square;stroke-linejoin:miter;stroke-miterlimit:3.1;stroke-dasharray:none;stroke-dashoffset:206.966;stroke-opacity:1;paint-order:stroke fill markers"
       d="m 9.8922407,20.391078 c 0,0 1.5990393,-0.136931 2.4005703,-0.137045 0.805557,-1.15e-4 2.412663,0.137045 2.412663,0.137045"
       id="path82" /><path
       style="fill:none;fill-opacity:1;stroke:#aa800b;stroke-width:0.338877;stroke-linecap:square;stroke-linejoin:miter;stroke-miterlimit:3.1;stroke-dasharray:none;stroke-dashoffset:206.966;stroke-opacity:1;paint-order:stroke fill markers"
       d="m 9.6020537,18.718992 c 0,0 1.7687183,-0.235269 2.6600673,-0.23555 0.907599,-2.87e-4 2.733247,0.23555 2.733247,0.23555"
       id="path83" /><path
       style="fill:none;fill-opacity:1;stroke:#aa800b;stroke-width:0.344752;stroke-linecap:square;stroke-linejoin:miter;stroke-miterlimit:3.1;stroke-dasharray:none;stroke-dashoffset:206.966;stroke-opacity:1;paint-order:stroke fill markers"
       d="m 10.963672,23.200651 c 0.135048,0.548459 0.270095,1.096918 0.66008,1.379416 0.34872,0.252607 0.901281,0.292558 1.287227,0.09818 0.07475,-0.03765 0.185168,-0.118443 0.243232,-0.178518 0.293248,-0.303403 0.399076,-0.817775 0.504904,-1.332148"
       id="path85"
       transform="matrix(1.0964359,0,0,0.98522182,-1.1013072,-0.38828378)" /><path
       id="path86"
       style="fill:none;fill-opacity:1;stroke:#aa800b;stroke-width:0.26315;stroke-linecap:square;stroke-linejoin:miter;stroke-miterlimit:3.1;stroke-dasharray:none;stroke-dashoffset:206.966;stroke-opacity:1;paint-order:stroke fill markers"
       d="m 13.105688,15.882374 c 0.215568,0.05049 0.686365,0.256324 0.847514,0.348715 0.746357,0.427918 0.744777,1.306871 0.743195,2.185841" /><path
       id="path87"
       style="fill:none;fill-opacity:1;stroke:#aa800b;stroke-width:0.257228;stroke-linecap:square;stroke-linejoin:miter;stroke-miterlimit:3.1;stroke-dasharray:none;stroke-dashoffset:206.966;stroke-opacity:1;paint-order:stroke fill markers"
       d="m 9.8125047,18.453741 c -0.05204,-0.852911 -0.104082,-1.705823 0.6189943,-2.143313 0.164388,-0.09946 0.637772,-0.399619 0.864358,-0.455966" /><rect
       style="fill:none;fill-opacity:1;stroke:#aa800b;stroke-width:0.304535;stroke-linecap:square;stroke-linejoin:miter;stroke-miterlimit:3.1;stroke-dasharray:none;stroke-dashoffset:206.966;stroke-opacity:1;paint-order:stroke fill markers"
       id="rect88"
       width="1.7485051"
       height="10.843098"
       x="11.31303"
       y="5.2556238" /></g><g
     id="layer11"
     transform="translate(-1.1186055,-1.1653777)"><path
       style="fill:none;stroke:#aa800b;stroke-width:0.569119;stroke-linecap:round;stroke-linejoin:round;stroke-miterlimit:3.1;stroke-dasharray:none;stroke-dashoffset:206.966;paint-order:stroke fill markers"
       id="rect5"
       width="21.982918"
       height="22.170006"
       x="1.403165"
       y="1.4499372"
       d="M 1.403165,1.4499372 H 23.386083 V 13.610699 A 10.009244,10.009244 135 0 1 13.376839,23.619943 h -1.478 A 10.495674,10.495674 45 0 1 1.403165,13.124269 Z" /><path
       style="fill:url(#linearGradient8);fill-opacity:1;stroke:none;stroke-width:0.569119;stroke-linecap:round;stroke-linejoin:round;stroke-miterlimit:3.1;stroke-dasharray:none;stroke-dashoffset:206.966;paint-order:stroke fill markers"
       id="rect5-5"
       width="21.982918"
       height="22.170006"
       x="1.403165"
       y="1.4499372"
       d="M 1.403165,1.4499372 H 23.386083 V 13.610699 A 10.009244,10.009244 135 0 1 13.376839,23.619943 h -1.478 A 10.495674,10.495674 45 0 1 1.403165,13.124269 Z"
       transform="matrix(0.88639257,0,0,0.88639257,1.4192241,1.4542038)" /><path
       d="m 8.2480753,4.1914754 c -2.1592837,0 -3.1259074,1.038628 -3.1259074,2.192631 0,1.4232701 0.6767636,3.0195166 1.063501,3.7119176 0.3545092,0.615469 0.3218543,0.981012 0.1607137,1.211813 0.290053,0.03846 0.5480488,0.154124 0.6769613,0.307991 0.064456,0.1154 0.064506,0.345845 -0.096635,0.499711 0.3545093,0.0577 0.6765748,0.269572 1.0955404,0.82734 0.7412466,0.961669 1.5471924,2.480836 1.5471924,4.000273 0,0.653935 -0.2903049,1.038696 -1.1926921,1.038696 -0.5478779,0 -0.9989054,-0.230797 -0.9989054,-1.230933 v -1.28881 c 0,-0.596235 0.064686,-0.903546 0.225826,-1.038179 C 6.8624236,14.270059 6.5076131,14.039182 6.5076131,12.942879 H 6.2823038 c 0,1.13477 -0.2899768,1.32718 -1.1601359,1.481047 0.1933687,0.153867 0.3219442,0.518877 0.3219442,1.038179 v 2.058272 c 0,0.634702 -0.128576,0.865192 -0.3219442,1.01906 0.4511936,0.0577 0.7409412,0.192542 0.9343099,0.404109 0.1933687,-0.1154 0.3223127,-0.192236 0.6123657,-0.192236 0.2900531,0 0.5799894,0.03842 0.9022705,0.09612 0.3222813,0.0577 0.7090817,0.09612 1.2247315,0.09612 2.3526525,0 3.3196935,-1.28892 3.3196935,-2.500622 0,-1.057837 -0.580317,-2.499991 -0.934826,-3.134692 -0.483422,-0.827036 -0.386639,-1.250246 -0.19327,-1.481047 -0.257825,0 -0.547721,-0.07673 -0.644405,-0.211357 -0.09668,-0.1154 -0.03233,-0.346474 0.19327,-0.481107 C 9.6983768,10.90392 8.7959038,9.5959937 8.3447102,8.5958577 8.1191134,8.09579 7.7003051,6.7300986 7.7003051,5.9799967 c 0,-0.5193013 0.2577083,-0.8459432 0.9022705,-0.8459432 0.7090185,0 1.2247315,0.3268837 1.2247315,0.9808187 v 1.0386963 c 0,0.750102 -0.096865,0.9810123 -0.322461,1.2118123 0.8379309,0.2115673 1.0635009,0.4038151 1.0635009,1.596285 h 0.257865 c 0,-1.1347695 0.257799,-1.4039512 1.063501,-1.596285 C 11.631889,8.173047 11.503174,7.8649774 11.503174,7.191809 V 5.595524 c 0,-0.403901 0.09673,-0.8848292 0.257865,-1.0386962 -0.354509,0.019233 -0.773686,-0.1153184 -0.934827,-0.3653524 -0.128912,0.076933 -0.418619,0.1922363 -0.676444,0.1922363 -0.3222811,0 -0.6127343,-0.057652 -0.9027873,-0.096118 -0.3222811,-0.038467 -0.612168,-0.096118 -0.9989054,-0.096118 z m 7.6119387,0 c -1.708091,0 -3.190503,0.4999334 -3.190503,1.6924031 v 3.5196818 c 0,1.3078697 -0.19345,1.5771807 -0.515731,1.7502807 0.257825,0.1154 0.38654,0.288419 0.38654,0.365352 0,0.173101 -0.09649,0.269703 -0.38654,0.36587 0.290053,0.192333 0.515731,0.346001 0.515731,1.615405 v 3.654557 c 0,1.36557 1.901469,1.788521 3.351733,1.788521 0.515649,0 0.966718,-0.0193 1.256771,-0.077 0.257825,-0.0577 0.451315,-0.115239 0.773596,-0.115239 0.16114,0 0.354591,0.01901 0.515731,0.03824 0.161141,0.03846 0.321894,0.07706 0.418579,0.153995 0.06445,-0.153867 0.258095,-0.307765 0.483691,-0.346232 v -4.654496 c 0,-0.307734 0.09654,-0.346232 0.289905,-0.346232 0.19337,0 0.225826,0.03838 0.225826,0.365352 v 0.634587 h 0.257866 l 0.3545,-1.769401 c -0.386738,0.01924 -0.805915,-0.134439 -0.934827,-0.384473 -0.322281,0.173101 -0.837706,0.230994 -1.45004,0.230994 -0.612334,0 -1.031314,-0.07713 -1.321367,-0.230994 -0.128915,0.250034 -0.580317,0.403706 -0.934826,0.384473 l 0.225826,1.750281 h 0.289904 v -0.615467 c 0,-0.2885 0.06416,-0.326595 0.22531,-0.326595 0.128915,0 0.16123,0.01875 0.16123,0.345716 v 2.904732 c 0,0.980902 -0.128899,1.153935 -0.709001,1.153935 -0.580107,0 -0.805635,-0.173033 -0.805635,-1.153935 V 13.8467 c 0,-1.01937 0.09695,-1.711603 0.483691,-1.961637 -0.257826,-0.09617 -0.3545,-0.25047 -0.3545,-0.36587 0,-0.1154 0.12853,-0.249952 0.418579,-0.365352 -0.322281,-0.1731 -0.54777,-0.480474 -0.54777,-1.7306436 V 6.6533406 c 0,-1.4425037 0.483297,-1.5384074 1.256771,-1.5384074 0.67679,0 1.289327,0.095904 1.289327,1.5384074 v 0.6733439 c 0,0.5962351 -0.09654,0.8075411 -0.289905,0.9229411 0.870159,0.2500342 1.030945,0.4807489 1.030945,1.596285 h 0.257865 c 0,-1.1347695 0.225569,-1.3462508 1.063501,-1.596285 -0.257825,-0.1154 -0.483175,-0.326706 -0.483175,-0.9229411 V 5.8265177 c 0,-0.9424357 0.128579,-1.1350563 0.321945,-1.2696899 -0.322281,0.019233 -0.708573,-0.096085 -0.869715,-0.3653524 -0.193368,0.1538671 -0.386769,0.1922363 -0.612365,0.1922363 -0.322282,0 -0.612357,-0.057652 -0.966866,-0.096118 -0.35451,-0.038467 -0.805808,-0.096118 -1.482597,-0.096118 z"
       style="-inkscape-font-specification:'Mesquite Std';fill:#ffffff;stroke-width:1.00413;stroke-linecap:round;stroke-linejoin:round;stroke-miterlimit:3.1;stroke-dashoffset:206.966;paint-order:stroke fill markers"
       id="path23" /></g></svg>
